<svg width="375" height="115" viewBox="0 0 375 115" fill="none" xmlns="http://www.w3.org/2000/svg">
<path d="M15.38 22H34.75L49.57 113H35.27L32.67 94.93V95.19H16.42L13.82 113H0.56L15.38 22ZM30.98 82.84L24.61 37.86H24.35L18.11 82.84H30.98ZM8.23 0.939994H23.83L32.93 15.89H22.14L8.23 0.939994ZM77.328 22H98.388C105.495 22 110.825 23.9067 114.378 27.72C117.931 31.5333 119.708 37.1233 119.708 44.49V53.46C119.708 60.8267 117.931 66.4167 114.378 70.23C110.825 74.0433 105.495 75.95 98.388 75.95H91.628V113H77.328V22ZM98.388 62.95C100.728 62.95 102.461 62.3 103.588 61C104.801 59.7 105.408 57.49 105.408 54.37V43.58C105.408 40.46 104.801 38.25 103.588 36.95C102.461 35.65 100.728 35 98.388 35H91.628V62.95H98.388ZM127.475 22H148.665C156.031 22 161.405 23.7333 164.785 27.2C168.165 30.58 169.855 35.8233 169.855 42.93V48.52C169.855 57.9667 166.735 63.9467 160.495 66.46V66.72C163.961 67.76 166.388 69.8833 167.775 73.09C169.248 76.2967 169.985 80.5867 169.985 85.96V101.95C169.985 104.55 170.071 106.673 170.245 108.32C170.418 109.88 170.851 111.44 171.545 113H156.985C156.465 111.527 156.118 110.14 155.945 108.84C155.771 107.54 155.685 105.2 155.685 101.82V85.18C155.685 81.02 154.991 78.1167 153.605 76.47C152.305 74.8233 150.008 74 146.715 74H141.775V113H127.475V22ZM146.975 61C149.835 61 151.958 60.2633 153.345 58.79C154.818 57.3167 155.555 54.8467 155.555 51.38V44.36C155.555 41.0667 154.948 38.6833 153.735 37.21C152.608 35.7367 150.788 35 148.275 35H141.775V61H146.975ZM200.576 114.3C193.556 114.3 188.183 112.307 184.456 108.32C180.73 104.333 178.866 98.7 178.866 91.42V43.58C178.866 36.3 180.73 30.6667 184.456 26.68C188.183 22.6933 193.556 20.7 200.576 20.7C207.596 20.7 212.97 22.6933 216.696 26.68C220.423 30.6667 222.286 36.3 222.286 43.58V91.42C222.286 98.7 220.423 104.333 216.696 108.32C212.97 112.307 207.596 114.3 200.576 114.3ZM200.576 101.3C205.516 101.3 207.986 98.31 207.986 92.33V42.67C207.986 36.69 205.516 33.7 200.576 33.7C195.636 33.7 193.166 36.69 193.166 42.67V92.33C193.166 98.31 195.636 101.3 200.576 101.3ZM231.957 22H253.017C260.124 22 265.454 23.9067 269.007 27.72C272.56 31.5333 274.337 37.1233 274.337 44.49V53.46C274.337 60.8267 272.56 66.4167 269.007 70.23C265.454 74.0433 260.124 75.95 253.017 75.95H246.257V113H231.957V22ZM253.017 62.95C255.357 62.95 257.09 62.3 258.217 61C259.43 59.7 260.037 57.49 260.037 54.37V43.58C260.037 40.46 259.43 38.25 258.217 36.95C257.09 35.65 255.357 35 253.017 35H246.257V62.95H253.017ZM302.773 114.3C295.753 114.3 290.38 112.307 286.653 108.32C282.927 104.333 281.063 98.7 281.063 91.42V43.58C281.063 36.3 282.927 30.6667 286.653 26.68C290.38 22.6933 295.753 20.7 302.773 20.7C309.793 20.7 315.167 22.6933 318.893 26.68C322.62 30.6667 324.483 36.3 324.483 43.58V91.42C324.483 98.7 322.62 104.333 318.893 108.32C315.167 112.307 309.793 114.3 302.773 114.3ZM302.773 101.3C307.713 101.3 310.183 98.31 310.183 92.33V42.67C310.183 36.69 307.713 33.7 302.773 33.7C297.833 33.7 295.363 36.69 295.363 42.67V92.33C295.363 98.31 297.833 101.3 302.773 101.3ZM352.744 114.3C345.811 114.3 340.568 112.35 337.014 108.45C333.461 104.463 331.684 98.7867 331.684 91.42V86.22H345.204V92.46C345.204 98.3533 347.674 101.3 352.614 101.3C355.041 101.3 356.861 100.607 358.074 99.22C359.374 97.7467 360.024 95.4067 360.024 92.2C360.024 88.3867 359.158 85.05 357.424 82.19C355.691 79.2433 352.484 75.7333 347.804 71.66C341.911 66.46 337.794 61.78 335.454 57.62C333.114 53.3733 331.944 48.6067 331.944 43.32C331.944 36.1267 333.764 30.58 337.404 26.68C341.044 22.6933 346.331 20.7 353.264 20.7C360.111 20.7 365.268 22.6933 368.734 26.68C372.288 30.58 374.064 36.2133 374.064 43.58V47.35H360.544V42.67C360.544 39.55 359.938 37.2967 358.724 35.91C357.511 34.4367 355.734 33.7 353.394 33.7C348.628 33.7 346.244 36.6033 346.244 42.41C346.244 45.7033 347.111 48.78 348.844 51.64C350.664 54.5 353.914 57.9667 358.594 62.04C364.574 67.24 368.691 71.9633 370.944 76.21C373.198 80.4567 374.324 85.44 374.324 91.16C374.324 98.6133 372.461 104.333 368.734 108.32C365.094 112.307 359.764 114.3 352.744 114.3Z" fill="#6BC95B"/>
</svg>
