<svg width="1440" height="1024" viewBox="0 0 1440 1024" fill="none" xmlns="http://www.w3.org/2000/svg">
<path d="M1469 0H-59V1051H1469V0Z" fill="url(#paint0_radial)"/>
<path d="M208.891 726.729L250.447 720.913C259.523 719.651 268.714 722.504 275.278 728.649L295.143 747.195L437.166 782.64C446.585 784.999 456.346 785.932 466.107 785.438L472.329 785.109C483.86 784.505 495.391 786.59 505.894 791.199L543.512 807.605L904.562 892.157C921.801 896.217 938.07 903.295 952.626 913.006L1030.89 965.515L1134.04 990.535C1166.74 998.491 1200.82 999.863 1234.16 994.595C1253.85 991.468 1274.06 992.675 1293.24 998.107C1319.61 1005.57 1345.02 1015.88 1368.99 1028.83L1425.05 1049.35L183.317 1041.51L208.891 726.729Z" fill="url(#paint1_linear)"/>
<path d="M-7.96777 472.305C12.5821 492.936 49.0011 524.54 69.551 545.17C104.143 579.902 103.173 599.545 137.765 634.276C148.668 645.25 179.322 660.229 190.225 671.202C159.514 680.969 128.803 690.681 98.0926 700.447C98.0926 700.392 -7.96777 472.305 -7.96777 472.305Z" fill="#F9F9F9"/>
<path d="M212.202 654.961C225.388 679.981 232.467 705.605 254.158 724.315C266.831 735.234 276.649 735.673 277.962 738.196C281.558 745.165 271.169 749.993 265.974 753.998C258.668 759.65 251.418 765.356 244.112 771.008C234.293 778.634 224.475 786.316 214.657 793.943C214.714 793.997 212.202 654.961 212.202 654.961Z" fill="#F9F9F9"/>
<path d="M246.166 769.8C232.752 724.424 220.879 717.621 223.561 699.46C225.731 684.755 212.088 656.059 212.202 654.906C147.355 666.703 103.915 640.037 68.2954 586.65L-7.96756 472.305L-27.7754 1005.57L189.083 1018.24C194.506 985.213 199.929 952.182 205.352 919.152C212.716 874.434 209.861 844.476 215.855 799.594C215.855 799.32 252.274 790.486 246.166 769.8Z" fill="url(#paint2_linear)"/>
<path d="M427.062 782.365L481.748 837.837L442.132 835.862L374.717 751.31C371.635 745.549 422.439 777.702 427.062 782.365Z" fill="#F9F9F9"/>
<path d="M447.897 845.628L419.87 792.461C407.254 768.539 384.935 750.706 358.163 743.19L289.321 723.821L-13.8476 972.374L-14.9893 1036.73L447.897 845.628Z" fill="url(#paint3_linear)"/>
<path d="M1100.81 953.883C1129.41 975.885 1154.76 1001.56 1176.11 1030.2L1182.44 1038.71L1119.48 1040.68L1100.81 953.883Z" fill="#F2F2F2"/>
<path d="M651.913 753.066L967.924 939.234L804.667 933.418L651.913 753.066Z" fill="#F2F2F2"/>
<path d="M292.803 770.569L465.365 827.138L383.794 831.034L292.803 770.569Z" fill="#F2F2F2"/>
<path d="M8.35792 1008.48L292.86 770.624L373.69 807.879C395.781 818.03 419.699 823.901 444.187 825.053C474.213 826.479 504.125 820.718 531.296 808.318L652.027 753.121L693.755 788.017C792.965 870.977 914.381 925.462 1044.24 945.269L1100.87 953.938C1105.55 965.46 1107.84 989.822 1112.52 1001.34C1117.71 1014.07 1134.89 1025.98 1134.66 1039.42C1134.61 1041.12 957.65 1034.32 947.318 1034.37C852.331 1034.59 757.288 1034.87 662.302 1035.09C558.639 1035.36 455.033 1035.64 351.37 1035.91C268.714 1036.13 186.058 1036.35 103.401 1036.57C71.3206 1036.68 39.2399 1036.73 7.15918 1036.84L8.35792 1008.48Z" fill="url(#paint4_linear)"/>
<path d="M52.6543 1032.84C55.908 1032.29 146.727 1011.55 225.901 993.388C302.279 975.885 371.692 937.423 425.749 882.719L545.852 1036.73L52.6543 1032.84Z" fill="url(#paint5_linear)"/>
<path d="M425.75 882.719L671.778 1035.75L545.852 1036.73L425.75 882.719Z" fill="#F9F9F9"/>
<path d="M1339.08 235.22C1341 235.22 1342.56 233.721 1342.56 231.873C1342.56 230.024 1341 228.526 1339.08 228.526C1337.16 228.526 1335.6 230.024 1335.6 231.873C1335.6 233.721 1337.16 235.22 1339.08 235.22Z" fill="white"/>
<path d="M1271.04 385.943C1273.72 385.943 1275.89 383.855 1275.89 381.279C1275.89 378.703 1273.72 376.615 1271.04 376.615C1268.36 376.615 1266.18 378.703 1266.18 381.279C1266.18 383.855 1268.36 385.943 1271.04 385.943Z" fill="white"/>
<path d="M1179.3 473.403C1180.91 473.403 1182.21 472.15 1182.21 470.604C1182.21 469.059 1180.91 467.806 1179.3 467.806C1177.7 467.806 1176.39 469.059 1176.39 470.604C1176.39 472.15 1177.7 473.403 1179.3 473.403Z" fill="white"/>
<path d="M1026.43 522.455C1028.61 522.455 1030.37 520.76 1030.37 518.669C1030.37 516.578 1028.61 514.883 1026.43 514.883C1024.26 514.883 1022.5 516.578 1022.5 518.669C1022.5 520.76 1024.26 522.455 1026.43 522.455Z" fill="white"/>
<path d="M1055.89 632.575C1057.59 632.575 1058.97 631.249 1058.97 629.612C1058.97 627.976 1057.59 626.649 1055.89 626.649C1054.19 626.649 1052.81 627.976 1052.81 629.612C1052.81 631.249 1054.19 632.575 1055.89 632.575Z" fill="white"/>
<path d="M1179.42 604.538C1181.72 604.538 1183.58 602.744 1183.58 600.532C1183.58 598.32 1181.72 596.527 1179.42 596.527C1177.12 596.527 1175.25 598.32 1175.25 600.532C1175.25 602.744 1177.12 604.538 1179.42 604.538Z" fill="white"/>
<path d="M1309.28 583.743C1310.07 583.743 1310.71 583.129 1310.71 582.371C1310.71 581.613 1310.07 580.999 1309.28 580.999C1308.49 580.999 1307.85 581.613 1307.85 582.371C1307.85 583.129 1308.49 583.743 1309.28 583.743Z" fill="white"/>
<path d="M1281.25 644.866C1282.36 644.866 1283.25 644.006 1283.25 642.945C1283.25 641.885 1282.36 641.025 1281.25 641.025C1280.15 641.025 1279.26 641.885 1279.26 642.945C1279.26 644.006 1280.15 644.866 1281.25 644.866Z" fill="white"/>
<path d="M1139.63 140.878C1140.58 140.7 1141.25 140 1141.11 139.316C1140.97 138.632 1140.09 138.222 1139.13 138.401C1138.17 138.579 1137.5 139.279 1137.64 139.963C1137.78 140.647 1138.67 141.057 1139.63 140.878Z" fill="white"/>
<path d="M1220.48 150.746C1221.78 150.504 1222.68 149.56 1222.5 148.638C1222.31 147.715 1221.11 147.164 1219.81 147.406C1218.51 147.649 1217.6 148.593 1217.79 149.515C1217.98 150.437 1219.18 150.988 1220.48 150.746Z" fill="white"/>
<path d="M1237.41 279.773C1238.04 279.773 1238.56 279.257 1238.56 278.62C1238.56 277.984 1238.04 277.468 1237.41 277.468C1236.78 277.468 1236.27 277.984 1236.27 278.62C1236.27 279.257 1236.78 279.773 1237.41 279.773Z" fill="white"/>
<path d="M1068.85 288.771C1069.73 288.771 1070.45 288.034 1070.45 287.125C1070.45 286.216 1069.73 285.479 1068.85 285.479C1067.97 285.479 1067.25 286.216 1067.25 287.125C1067.25 288.034 1067.97 288.771 1068.85 288.771Z" fill="white"/>
<defs>
<radialGradient id="paint0_radial" cx="0" cy="0" r="1" gradientUnits="userSpaceOnUse" gradientTransform="translate(1327.11 -173.353) scale(2303.9 2214.5)">
<stop stop-color="#4F4F4F"/>
<stop offset="1" stop-color="#1B141E"/>
</radialGradient>
<linearGradient id="paint1_linear" x1="964.638" y1="530.389" x2="794.832" y2="975.439" gradientUnits="userSpaceOnUse">
<stop offset="0.1694" stop-color="white"/>
<stop offset="0.1925" stop-color="#F1FBFF"/>
<stop offset="0.2637" stop-color="#CBF1FF"/>
<stop offset="0.3378" stop-color="#ABE9FF"/>
<stop offset="0.4145" stop-color="#93E3FF"/>
<stop offset="0.495" stop-color="#82DFFF"/>
<stop offset="0.5817" stop-color="#77DCFF"/>
<stop offset="0.6858" stop-color="#74DBFF"/>
</linearGradient>
<linearGradient id="paint2_linear" x1="222.993" y1="472.149" x2="-3.06419" y2="976.599" gradientUnits="userSpaceOnUse">
<stop offset="0.1694" stop-color="white"/>
<stop offset="0.1925" stop-color="#F1FBFF"/>
<stop offset="0.2637" stop-color="#CBF1FF"/>
<stop offset="0.3378" stop-color="#ABE9FF"/>
<stop offset="0.4145" stop-color="#93E3FF"/>
<stop offset="0.495" stop-color="#82DFFF"/>
<stop offset="0.5817" stop-color="#77DCFF"/>
<stop offset="0.6858" stop-color="#74DBFF"/>
</linearGradient>
<linearGradient id="paint3_linear" x1="353.181" y1="720.764" x2="164.293" y2="1003.47" gradientUnits="userSpaceOnUse">
<stop offset="1.66349e-06" stop-color="white"/>
<stop offset="0.0245824" stop-color="#F7FDFF"/>
<stop offset="0.1801" stop-color="#C8F1FF"/>
<stop offset="0.3286" stop-color="#A4E7FF"/>
<stop offset="0.4665" stop-color="#89E1FF"/>
<stop offset="0.5896" stop-color="#7ADCFF"/>
<stop offset="0.6858" stop-color="#74DBFF"/>
</linearGradient>
<linearGradient id="paint4_linear" x1="679.523" y1="726.127" x2="457.94" y2="1387.2" gradientUnits="userSpaceOnUse">
<stop offset="1.66349e-06" stop-color="white"/>
<stop offset="0.0245824" stop-color="#F7FDFF"/>
<stop offset="0.1801" stop-color="#C8F1FF"/>
<stop offset="0.3286" stop-color="#A4E7FF"/>
<stop offset="0.4665" stop-color="#89E1FF"/>
<stop offset="0.5896" stop-color="#7ADCFF"/>
<stop offset="0.6858" stop-color="#74DBFF"/>
</linearGradient>
<linearGradient id="paint5_linear" x1="401.265" y1="835.528" x2="297.934" y2="1053.95" gradientUnits="userSpaceOnUse">
<stop offset="1.66349e-06" stop-color="white"/>
<stop offset="0.0245824" stop-color="#F7FDFF"/>
<stop offset="0.1801" stop-color="#C8F1FF"/>
<stop offset="0.3286" stop-color="#A4E7FF"/>
<stop offset="0.4665" stop-color="#89E1FF"/>
<stop offset="0.5896" stop-color="#7ADCFF"/>
<stop offset="0.6858" stop-color="#74DBFF"/>
</linearGradient>
</defs>
</svg>
