<svg width="33" height="32" viewBox="0 0 33 32" fill="none" xmlns="http://www.w3.org/2000/svg">
<path d="M16.0144 31.9988C7.19097 31.9885 1.1009e-05 24.8132 1.1009e-05 16.0091C-0.0103208 7.16376 7.25296 -0.0527368 16.1177 -0.00119041C24.9411 0.050356 32.101 7.25654 32.07 16.0504C32.039 24.8545 24.8378 32.0091 16.0144 31.9988ZM12.8425 21.8854C12.8425 22.5143 12.8425 23.1328 12.8425 23.7617C12.8425 27.1741 12.8425 27.1535 16.252 27.0813C17.0062 27.071 17.2645 26.8648 17.2542 26.0916C17.2129 23.4318 17.3162 20.7617 17.2025 18.1019C17.1509 16.8545 17.5641 16.4318 18.7316 16.6483C19.8268 16.8545 20.1574 16.3493 20.2504 15.3287C20.4571 13.0607 20.4984 13.071 18.1221 12.9679C17.7811 12.9576 17.3885 13.1019 17.2335 12.5452C16.7273 10.6998 17.3782 9.79263 19.2792 9.78232C19.4859 9.78232 19.6925 9.77201 19.9095 9.78232C20.3331 9.79263 20.4984 9.58644 20.4881 9.17407C20.4777 8.38025 20.4777 7.59675 20.4881 6.80293C20.4984 6.35964 20.2607 6.22561 19.8578 6.23592C18.649 6.25654 17.4298 6.17407 16.2313 6.3184C14.4336 6.53489 13.2661 7.80293 13.0181 9.62768C12.9045 10.4524 12.8528 11.2875 12.8632 12.1122C12.8632 12.7411 12.6875 13.0916 12.0159 12.9679C10.8794 12.7617 10.6625 13.3493 10.7865 14.3081C10.8381 14.7205 10.8381 15.1431 10.7865 15.5555C10.6728 16.4318 11.0138 16.7926 11.892 16.6586C12.6772 16.5349 12.8941 16.906 12.8632 17.6483C12.8115 19.0504 12.8425 20.473 12.8425 21.8854Z" fill="#6BC95B"/>
</svg>
