<svg width="34" height="32" viewBox="0 0 34 32" fill="none" xmlns="http://www.w3.org/2000/svg">
<path d="M33.0303 16.0824C32.9786 24.9175 25.705 32.0824 16.8506 32C8.03755 31.9175 0.908581 24.701 0.96024 15.9175C1.0119 7.08245 8.28551 -0.0825017 17.1399 -2.74858e-05C25.9426 0.0824467 33.0716 7.29894 33.0303 16.0824ZM7.41764 15.9587C7.39697 15.9587 7.37632 15.9587 7.34532 15.9587C7.34532 17.5876 7.26266 19.2165 7.36598 20.8247C7.54162 23.7319 9.34969 25.5567 12.2426 25.6495C15.4145 25.7526 18.5864 25.7526 21.7582 25.6495C24.6098 25.5567 26.4695 23.7629 26.5832 20.9278C26.7278 17.5154 26.8002 14.0928 26.5315 10.6907C26.3456 8.30925 24.4445 6.52575 22.0372 6.48451C18.6587 6.41234 15.2698 6.41234 11.8913 6.48451C9.49434 6.53606 7.61394 8.31956 7.42797 10.7216C7.31432 12.4639 7.41764 14.2165 7.41764 15.9587Z" fill="#6BC95B"/>
<path d="M16.9129 23.5462C15.4561 23.5462 13.9994 23.5669 12.5322 23.5359C10.5588 23.4947 9.48434 22.4741 9.46368 20.5462C9.43268 17.5566 9.43268 14.5566 9.46368 11.5669C9.48434 9.63903 10.5588 8.55655 12.5012 8.52562C15.4975 8.48439 18.504 8.47408 21.5003 8.52562C23.4323 8.55655 24.4862 9.66995 24.5068 11.5978C24.5378 14.5462 24.5378 17.505 24.5068 20.4535C24.4862 22.4741 23.4427 23.505 21.397 23.5359C19.9092 23.5669 18.411 23.5462 16.9129 23.5462ZM16.9336 20.9895C19.6302 21.0205 21.9032 18.8143 21.9652 16.1236C22.0272 13.4225 19.7025 11.072 16.9749 11.072C14.299 11.0823 12.0156 13.3504 12.0053 16.0102C11.995 18.6906 14.2473 20.9689 16.9336 20.9895ZM22.1512 9.76274C21.4589 9.86583 20.9837 10.1957 20.994 10.9586C21.0043 11.6493 21.4176 12.0308 22.0892 12.0514C22.7608 12.072 23.1947 11.7112 23.2463 11.0205C23.298 10.2679 22.8434 9.90707 22.1512 9.76274Z" fill="#6BC95B"/>
<path d="M16.9331 13.2267C18.4829 13.1957 19.7434 14.3916 19.7951 15.9277C19.8467 17.5359 18.6379 18.8246 17.0468 18.8555C15.5073 18.8865 14.2365 17.6906 14.1849 16.1648C14.1229 14.5566 15.342 13.2576 16.9331 13.2267Z" fill="#6BC95B"/>
</svg>
