<svg width="33" height="32" viewBox="0 0 33 32" fill="none" xmlns="http://www.w3.org/2000/svg">
<path d="M16.9855 1.11272e-05C25.8089 0.0103204 32.9896 7.19589 32.9999 15.9897C32.9999 24.8351 25.7366 32.0516 16.8719 32C8.04849 31.9485 0.888538 24.7423 0.919534 15.9485C0.960861 7.14434 8.17248 -0.0102982 16.9855 1.11272e-05ZM18.6386 14.0103C19.0209 12.299 18.1634 12.3505 17.2852 12.4021C16.8306 12.4227 16.3656 12.4433 15.911 12.4021C15.0845 12.3093 14.8365 12.6392 14.8468 13.4536C14.8882 16.0309 14.8675 18.6083 14.8675 21.1959C14.8675 24.0309 14.8675 24 17.7398 23.9382C18.5146 23.9175 18.7419 23.6804 18.7213 22.9278C18.68 21.1031 18.68 19.2681 18.7213 17.433C18.7523 16.0516 19.5375 15.2165 20.7153 15.1959C21.8725 15.1753 22.5854 15.866 22.6784 17.299C22.761 18.5876 22.7197 19.8763 22.7197 21.165C22.7197 24.0619 22.7197 24.0516 25.6539 23.9278C26.2739 23.9072 26.5528 23.7629 26.5425 23.0825C26.5012 20.8351 26.5838 18.5876 26.4702 16.3402C26.3462 13.8454 24.7034 12.2165 22.3788 12.134C20.984 12.0928 19.7855 12.5567 18.6386 14.0103ZM12.7185 18.1753C12.7185 17.1753 12.7185 16.1753 12.7185 15.1753C12.7185 12.2784 12.7185 12.299 9.80491 12.3815C9.08169 12.4021 8.89571 12.6392 8.89571 13.3196C8.9267 15.8969 8.90604 18.4742 8.90604 21.0619C8.90604 24.0722 8.90604 24.0516 11.8919 23.9175C12.5635 23.8866 12.7391 23.6598 12.7288 23.0309C12.6978 21.4124 12.7185 19.7938 12.7185 18.1753ZM10.7554 10.7732C12.0056 10.7938 12.9148 10 12.9458 8.88661C12.9768 7.77321 12.0676 6.8763 10.8794 6.84537C9.69125 6.81444 8.7304 7.6598 8.68907 8.7629C8.65808 9.91754 9.52595 10.7526 10.7554 10.7732Z" fill="#6BC95B"/>
</svg>
