<svg width="107" height="33" viewBox="0 0 107 33" fill="none" xmlns="http://www.w3.org/2000/svg">
<path d="M11.5532 33H25.6339V28.7744H16.6242V18.2271H23.7794V13.532H16.6242V4.42683H25.6339V0H11.5532V33Z" fill="#131411"/>
<path d="M29.1133 33.0001H35.1854L29.1133 9.54126V33.0001Z" fill="#131411"/>
<path d="M36.0388 19.2668V0H31.0991L36.0388 19.2668Z" fill="#131411"/>
<path d="M44.7857 25.6555C44.7857 27.9192 43.7846 28.9756 41.6348 28.9756C41.0275 28.9756 40.6993 28.9756 39.9937 28.9756V33H46.1314C48.6423 31.8933 49.8567 29.4451 49.8567 25.5213V0H44.7857V25.6555Z" fill="#131411"/>
<path d="M5.02178 9.87658V7.98177C5.02178 5.5839 4.25046 4.56104 2.42883 4.56104H0V13.3812H1.96933C4.08635 13.3812 5.02178 12.308 5.02178 9.87658Z" fill="#131411"/>
<path d="M2.24831 18.3779H0V28.6401H2.92117C4.79202 28.6401 5.54693 27.6843 5.54693 25.3703V22.4191C5.54693 19.4343 4.69356 18.3779 2.24831 18.3779Z" fill="#131411"/>
<path d="M54.5174 26.9968L53.6641 32.9999H61.1803L60.3434 26.9968H54.5174Z" fill="#131411"/>
<path d="M100.075 33.0001H106.147L100.075 9.54126V33.0001Z" fill="#131411"/>
<path d="M96.07 0H90.999V33H96.07V0Z" fill="#131411"/>
<path d="M102.06 0L107 19.2668V0H102.06Z" fill="#131411"/>
<path d="M76.8201 19.2668H76.6067L73.3245 0H65.9888V33H70.3869V9.54116H70.6167H70.6331L74.342 33H78.7237L82.449 9.54116H82.6624V33H87.4544V0H80.1023L76.8201 19.2668Z" fill="#131411"/>
<path d="M57.406 7.36133L55.1577 22.2516H59.6872L57.406 7.36133Z" fill="#258FE3"/>
</svg>
