<svg width="34" height="32" viewBox="0 0 34 32" fill="none" xmlns="http://www.w3.org/2000/svg">
<path d="M0.980081 15.9277C1.01108 7.09269 8.26402 -0.0619459 17.1494 -9.02007e-05C25.9521 0.0617655 33.0811 7.26795 33.0501 16.0721C33.0191 24.9174 25.7558 32.0618 16.8808 31.9999C8.07805 31.9381 0.949086 24.7319 0.980081 15.9277ZM26.0244 10.2989C24.2577 10.7525 24.2577 10.7525 22.5736 10.0205C20.2076 8.9896 17.4387 10.6288 17.3044 13.2473C17.2527 14.3401 16.7671 14.402 15.9922 14.2267C13.8329 13.7525 11.8905 12.8659 10.3201 11.2576C10.0721 11.0102 9.85513 10.5051 9.47285 10.6494C9.08024 10.7937 9.05957 11.3195 8.99758 11.7216C8.78061 13.1546 9.3282 14.3401 10.3717 15.3401C9.82413 15.5772 9.37986 14.9484 9.08024 15.3814C8.79095 15.7937 9.11123 16.2576 9.29721 16.67C9.73114 17.6082 10.4854 18.2267 11.6839 18.8247C9.65882 18.9793 10.6093 19.67 11.1053 20.268C11.7355 21.0205 12.6241 21.3298 13.5849 21.5875C12.2211 22.8968 10.4854 22.9587 8.78061 23.2989C11.8905 25.67 17.8933 25.1339 21.0445 22.2886C23.2658 20.2783 24.702 17.835 24.764 14.804C24.795 13.4535 25.7971 12.7834 26.479 11.8247C25.8591 11.6494 25.4562 12.1546 24.9396 11.8659C25.3735 11.4329 25.9521 11.103 26.0244 10.2989Z" fill="#6BC95B"/>
</svg>
