<svg width="343" height="95" viewBox="0 0 343 95" fill="none" xmlns="http://www.w3.org/2000/svg">
<path d="M21.48 94.3C14.6333 94.3 9.39 92.35 5.75 88.45C2.19667 84.55 0.42 79.0467 0.42 71.94V23.06C0.42 15.9533 2.19667 10.45 5.75 6.55C9.39 2.65 14.6333 0.699995 21.48 0.699995C28.3267 0.699995 33.5267 2.65 37.08 6.55C40.72 10.45 42.54 15.9533 42.54 23.06V32.68H29.02V22.15C29.02 16.5167 26.6367 13.7 21.87 13.7C17.1033 13.7 14.72 16.5167 14.72 22.15V72.98C14.72 78.5267 17.1033 81.3 21.87 81.3C26.6367 81.3 29.02 78.5267 29.02 72.98V59.07H42.54V71.94C42.54 79.0467 40.72 84.55 37.08 88.45C33.5267 92.35 28.3267 94.3 21.48 94.3ZM72.0195 94.3C64.9995 94.3 59.6262 92.3067 55.8995 88.32C52.1729 84.3333 50.3095 78.7 50.3095 71.42V23.58C50.3095 16.3 52.1729 10.6667 55.8995 6.68C59.6262 2.69333 64.9995 0.699995 72.0195 0.699995C79.0395 0.699995 84.4129 2.69333 88.1395 6.68C91.8662 10.6667 93.7295 16.3 93.7295 23.58V71.42C93.7295 78.7 91.8662 84.3333 88.1395 88.32C84.4129 92.3067 79.0395 94.3 72.0195 94.3ZM72.0195 81.3C76.9595 81.3 79.4295 78.31 79.4295 72.33V22.67C79.4295 16.69 76.9595 13.7 72.0195 13.7C67.0795 13.7 64.6095 16.69 64.6095 22.67V72.33C64.6095 78.31 67.0795 81.3 72.0195 81.3ZM103.4 1.99999H121.34L135.25 56.47H135.51V1.99999H148.25V93H133.56L116.4 26.57H116.14V93H103.4V1.99999ZM170.059 15H155.109V1.99999H199.309V15H184.359V93H170.059V15ZM211.316 1.99999H230.686L245.506 93H231.206L228.606 74.93V75.19H212.356L209.756 93H196.496L211.316 1.99999ZM226.916 62.84L220.546 17.86H220.286L214.046 62.84H226.916ZM272.339 94.3C265.493 94.3 260.249 92.35 256.609 88.45C253.056 84.55 251.279 79.0467 251.279 71.94V23.06C251.279 15.9533 253.056 10.45 256.609 6.55C260.249 2.65 265.493 0.699995 272.339 0.699995C279.186 0.699995 284.386 2.65 287.939 6.55C291.579 10.45 293.399 15.9533 293.399 23.06V32.68H279.879V22.15C279.879 16.5167 277.496 13.7 272.729 13.7C267.963 13.7 265.579 16.5167 265.579 22.15V72.98C265.579 78.5267 267.963 81.3 272.729 81.3C277.496 81.3 279.879 78.5267 279.879 72.98V59.07H293.399V71.94C293.399 79.0467 291.579 84.55 287.939 88.45C284.386 92.35 279.186 94.3 272.339 94.3ZM313.135 15H298.185V1.99999H342.385V15H327.435V93H313.135V15Z" fill="#6BC95B"/>
</svg>
