<svg width="1440" height="2734" viewBox="0 0 1440 2734" fill="none" xmlns="http://www.w3.org/2000/svg">
<g clip-path="url(#clip0)">
<path d="M65.1917 228.849L211.88 180.503C237.499 172.032 264.771 169.76 291.492 173.754L561.041 214.111L716.131 25.3434L1109.57 203.505L1118.04 342.756L14.5737 389.173L65.1917 228.849Z" fill="url(#paint0_linear)"/>
<path d="M716.2 25.3434C798.842 81.4709 878.866 167.418 1011.44 186.839C1076.86 196.412 1116.8 255.432 1124.59 259.77C1150.76 274.439 1062.81 176.853 1085.47 162.529C1085.47 162.46 716.2 25.3434 716.2 25.3434Z" fill="url(#paint1_linear)"/>
<path d="M1311.22 92.8341C1365.9 123.412 1413.97 164.595 1452.47 213.973L1478.91 247.856L1445.17 325.952L1311.22 92.8341Z" fill="url(#paint2_linear)"/>
<path d="M1190.91 25.3434L1324.85 138.08L1217.28 144.416L1190.91 25.3434Z" fill="url(#paint3_linear)"/>
<path d="M-12.4914 87.669C-0.577217 85.7407 27.1077 134.913 39.0907 142.144C68.0841 159.636 112.848 160.394 141.842 177.886C190.6 207.362 219.318 224.441 268.077 253.917C269.661 254.881 271.245 255.845 272.897 256.809C286.671 266.106 237.017 274.715 225.378 286.56L38.1954 476.636C20.8407 494.266 -9.11683 480.63 -7.2574 455.975L-14.4885 152.543C-13.3178 137.185 -18.0008 121.483 -19.5159 106.263C-20.7555 93.6606 -17.7253 88.4955 -12.4914 87.669Z" fill="url(#paint4_linear)"/>
<path d="M836.443 274.301L973.559 211.012L1190.91 25.3434L1260.46 94.8313C1274.72 109.087 1298.06 108.192 1311.22 92.8341L1455.7 283.667L1447.23 585.378L1025.28 450.397L836.443 274.301Z" fill="url(#paint5_linear)"/>
<path d="M509.39 0C570.682 35.6737 631.975 71.3473 693.336 107.021C806.21 172.721 847.876 159.774 960.75 225.474C994.702 245.239 970.5 338.5 1210 351.5C1229.97 363.139 1291.8 374.16 1306.19 392.272C1323 413.346 1164.39 459.97 1148.48 459.694L791.059 454.598L509.39 0Z" fill="url(#paint6_linear)"/>
<path d="M872.943 343.101C908.824 360.8 952.279 358.458 991.19 362.521C1034.03 366.998 1072.39 384.072 1115.5 386C1156.06 387.859 1201.17 368.926 1241.73 370.303C1293.11 372.094 1344.21 382.493 1392.28 401.156C1448.47 423.056 1440.28 431.045 1496.4 453.083C1510.25 458.523 1511.07 478.013 1497.85 484.693L1331.47 568.506C1331.4 568.506 873.563 343.445 872.943 343.101Z" fill="url(#paint7_linear)"/>
<path d="M-57.1177 168.796C-18.9648 166.041 50.454 206.742 88.2625 213.56C150.381 224.785 244.593 197.169 283.296 219.483C310.362 235.116 315.045 234.771 345.829 240.35L24.2154 329.671C10.304 302.606 -3.53842 275.61 -17.4497 248.545C-29.846 224.51 -51.8148 195.034 -57.1177 168.796Z" fill="url(#paint8_linear)"/>
<path d="M-22.3398 202.541C82.1329 270.927 219.593 260.459 312.496 176.991L509.389 0L883.618 312.73C944.497 363.623 1015.02 401.776 1090.91 424.847C1237.05 469.336 1393.79 400.468 1459.9 262.801L1524.3 128.714L1482.08 1977.06L-108.838 1953.86L-22.3398 202.541Z" fill="url(#paint9_linear)"/>
<path d="M95.8375 981.163C134.679 1005.27 144.94 1030.27 183.782 1054.37C200.172 1064.56 224.345 1076.55 240.736 1086.74C246.038 1090.04 275.652 1095.48 281.092 1093.28C283.503 1092.32 286.533 1087.01 288.186 1085.02C298.654 1072.9 309.053 1060.84 319.521 1048.72L435.563 1147.89L319.521 1257.53L83.2347 1179.43C83.1658 1179.5 95.8375 981.163 95.8375 981.163Z" fill="url(#paint10_linear)"/>
<path d="M499.266 992.044C533.631 1031.02 616.135 1093.56 651.464 1131.64C678.047 1160.43 801.734 1169.93 811.858 1209.74C818.331 1235.29 677.221 1236.53 654.563 1242.59C649.26 1244.03 585.902 1258.22 585.764 1257.94C585.764 1257.87 499.266 992.044 499.266 992.044Z" fill="url(#paint11_linear)"/>
<path d="M-56.0849 938.947L95.8378 981.163L128.963 1035.5C156.855 1081.3 214.979 1098.58 263.393 1075.44L319.521 1048.65L462.973 1297.61L-189 1312.42L-56.0849 938.947Z" fill="url(#paint12_linear)"/>
<path d="M946.563 1114.42L1077.41 1173.51L1014.67 1256.98L946.563 1114.42Z" fill="url(#paint13_linear)"/>
<path d="M1314.8 1004.23L1425.06 1139.35L1266.8 1230.05L1314.8 1004.23Z" fill="url(#paint14_linear)"/>
<path d="M752.493 1344.44L946.632 1114.42L1016.81 1206.15L1264.87 970.557L1289.25 982.265C1311.7 993.077 1327.06 1014.7 1329.81 1039.49L1419.34 1838.16L881.276 1890.91L752.493 1344.44Z" fill="url(#paint15_linear)"/>
<path d="M960.681 1206.29L1341.18 1304.36L1155.51 1852.96L480.327 1285.56L574.47 1241.76C695.195 1185.63 831.691 1173.1 960.681 1206.29Z" fill="url(#paint16_linear)"/>
<path d="M1163.5 970.626C1175.55 980.406 1207.64 996.934 1219.69 1006.71C1242.9 1025.51 1237.94 1030.06 1261.15 1048.86C1276.58 1061.33 1383.19 1085.5 1398.41 1107.26C1395.44 1107.26 1305.37 1101.68 1302.75 1103.75C1300.06 1105.81 1297.45 1107.95 1294.76 1110.02C1288.35 1115.11 1281.88 1120.14 1275.48 1125.24C1261.91 1135.91 1248.34 1146.65 1234.71 1157.33C1227.13 1163.32 1219.35 1169.1 1211.91 1175.3C1212.05 1175.3 1163.5 970.626 1163.5 970.626Z" fill="url(#paint17_linear)"/>
<path d="M1491.24 2007.37L1469.41 1086.67L1419.41 1094.8C1316.45 1111.46 1214.11 1061.81 1163.43 970.626L835.892 1285.22C807.725 1312.28 766.749 1321.16 729.905 1308.29C639.068 1276.54 568.272 1204.23 538.452 1112.7L499.197 992.044L335.498 1130.19C233.78 1216.21 98.1791 1250.85 -32.4634 1224.2L-23.9926 3216.07L1469.89 3209.73L1490.55 2088.97C1544.96 2087.32 1491.24 2007.37 1491.24 2007.37Z" fill="url(#paint18_linear)"/>
<path d="M411.666 1121.79L352.577 1051.48L76.8301 1194.93L244.248 2002.41L369.45 2193.72L363.803 2337.17L435.563 2393.44L593.133 2372.37L850.492 2563.68L922.253 2671.94" stroke="#35B57E" stroke-width="10" stroke-miterlimit="10"/>
<path d="M394.793 1142.93L337.771 1075.37L76.8301 1225.92L231.576 2022.1L353.61 2216.17L353.955 2331.87L440.866 2374.09L653.255 2411L847.393 2564.37L926.936 2674.84" stroke="#43BA75" stroke-width="10" stroke-miterlimit="10"/>
<path d="M377.852 1164.01L323.033 1099.34L76.8301 1256.84L218.905 2041.8L337.771 2238.69L344.106 2326.64L446.1 2354.74L713.376 2449.71L844.225 2565.06L931.688 2677.66" stroke="#50BF6D" stroke-width="10" stroke-miterlimit="10"/>
<path d="M360.979 1185.15L308.226 1123.24L76.8301 1287.83L206.302 2061.5L322 2261.21L334.258 2321.34L451.403 2335.38L773.498 2488.41L841.057 2565.75L936.371 2680.48" stroke="#5EC464" stroke-width="10" stroke-miterlimit="10"/>
<path d="M344.106 1206.22L293.489 1147.14L76.8301 1318.75L193.63 2081.19L306.16 2283.73L324.41 2316.1H456.637L833.62 2527.04L837.889 2566.44L941.054 2683.37" stroke="#6BC95B" stroke-width="10" stroke-miterlimit="10"/>
<path d="M155.615 1273.71L499.266 992.044L431.362 1256.84L155.615 1273.71Z" fill="white"/>
<path d="M332.881 2448.33L365.8 2443.51C375.579 2442.06 385.496 2443.3 394.656 2447.02L435.563 2463.82L537.695 2478.29C568.754 2482.69 600.364 2481.59 631.079 2475.12L667.648 2496.19L576.192 2538.41L322.964 2490.61L332.881 2448.33Z" fill="url(#paint19_linear)"/>
<path d="M-62.4209 2307.49L-26.2652 2292.14C-7.67085 2284.22 13.7471 2286.49 30.2754 2298.2L40.1923 2305.22C53.6216 2314.72 70.5631 2317.82 86.4716 2313.62L93.7716 2311.69L183.782 2370.78L352.577 2484.76L390.868 2473.05C420.481 2464.03 451.334 2459.76 482.324 2460.45L497.475 2460.79L527.295 2479.39C562.762 2501.49 606.218 2506.73 645.955 2493.71L664.824 2487.51L816.747 2515.68L846.291 2737.92L-153.809 2687.3L-62.4209 2307.49Z" fill="url(#paint20_linear)"/>
<path d="M354.23 2442.68L275.927 2354.94L363.803 2511.62L491.828 2597.43L559.319 2556.66L471.925 2523.6C426.817 2506.45 386.391 2478.7 354.23 2442.68Z" fill="url(#paint21_linear)"/>
<path d="M1269.69 2202.12L1363.97 2254.19L1313.28 2279.53L1269.69 2202.12Z" fill="url(#paint22_linear)"/>
<path d="M601.26 2544.4L979.964 2434.21L1220.38 2215.76C1233.74 2203.64 1252.06 2198.54 1269.76 2202.12L1296.14 2238.07C1307.57 2253.71 1328.85 2258.39 1345.86 2249.02C1371.48 2234.91 1392.41 2213.63 1406.12 2187.8L1504.67 2002.34L1537.04 2507.35L1496.27 2925.1L266.768 2697.29L469.24 2599.49L519.995 2575.39C546.165 2562.86 573.368 2552.53 601.26 2544.4Z" fill="url(#paint23_linear)"/>
<path d="M1175 2565.13L978.518 2432.83L1052.14 2536.96C1079.13 2575.11 1118.53 2602.8 1163.64 2615.2L1549.64 2721.25L1271.41 2615.13C1237.46 2602.18 1205.16 2585.44 1175 2565.13Z" fill="url(#paint24_linear)"/>
<path d="M-76.4697 2421.61L-69.5829 2414.72C-33.4272 2378.56 11.0614 2351.98 59.9577 2337.17L106.444 2323.13L196.454 2271.06C243.766 2309.08 282.745 2356.53 310.844 2410.31L327.165 2441.51C351.2 2487.51 386.392 2526.77 429.572 2555.69C470.548 2583.17 517.378 2600.6 566.275 2606.72L884.1 2646.25C885.822 2646.46 887.612 2646.67 889.334 2646.94C976.314 2658.51 1059.16 2691.16 1131.34 2741.02L1563 3039.22C1563 3039.22 -116.206 3125.03 -116.551 3136.25C-121.509 3298.02 -76.4697 2421.61 -76.4697 2421.61Z" fill="url(#paint25_linear)"/>
<g clip-path="url(#clip1)">
<path d="M993.225 2242C1003.57 2242.01 1011.99 2250.55 1012 2260.99C1012 2271.49 1003.48 2280.06 993.092 2280C982.747 2279.94 974.352 2271.38 974.389 2260.94C974.437 2250.48 982.892 2241.99 993.225 2242ZM995.163 2258.64C995.611 2256.61 994.606 2256.67 993.576 2256.73C993.043 2256.75 992.498 2256.78 991.965 2256.73C990.996 2256.62 990.705 2257.01 990.717 2257.98C990.766 2261.04 990.742 2264.1 990.742 2267.17C990.742 2270.54 990.742 2270.5 994.109 2270.43C995.018 2270.4 995.284 2270.12 995.26 2269.23C995.211 2267.06 995.211 2264.88 995.26 2262.7C995.296 2261.06 996.217 2260.07 997.598 2260.05C998.954 2260.02 999.79 2260.84 999.899 2262.54C999.996 2264.07 999.948 2265.6 999.948 2267.13C999.948 2270.57 999.948 2270.56 1003.39 2270.41C1004.11 2270.39 1004.44 2270.22 1004.43 2269.41C1004.38 2266.74 1004.48 2264.07 1004.34 2261.4C1004.2 2258.44 1002.27 2256.51 999.548 2256.41C997.913 2256.36 996.507 2256.91 995.163 2258.64ZM988.222 2263.58C988.222 2262.4 988.222 2261.21 988.222 2260.02C988.222 2256.58 988.222 2256.61 984.806 2256.7C983.958 2256.73 983.74 2257.01 983.74 2257.82C983.777 2260.88 983.752 2263.94 983.752 2267.01C983.752 2270.59 983.752 2270.56 987.253 2270.4C988.04 2270.37 988.246 2270.1 988.234 2269.35C988.198 2267.43 988.222 2265.51 988.222 2263.58ZM985.921 2254.79C987.386 2254.82 988.452 2253.88 988.489 2252.55C988.525 2251.23 987.459 2250.17 986.066 2250.13C984.673 2250.09 983.546 2251.1 983.498 2252.41C983.462 2253.78 984.479 2254.77 985.921 2254.79Z" fill="#6BC95B"/>
<path d="M792.775 2280C782.431 2279.99 774 2271.47 774 2261.01C773.988 2250.51 782.503 2241.94 792.897 2242C803.241 2242.06 811.636 2250.62 811.599 2261.06C811.563 2271.52 803.12 2280.01 792.775 2280ZM789.057 2267.99C789.057 2268.74 789.057 2269.47 789.057 2270.22C789.057 2274.27 789.057 2274.25 793.054 2274.16C793.938 2274.15 794.241 2273.9 794.229 2272.98C794.181 2269.83 794.302 2266.66 794.168 2263.5C794.108 2262.02 794.592 2261.51 795.961 2261.77C797.245 2262.02 797.633 2261.42 797.742 2260.2C797.984 2257.51 798.033 2257.52 795.247 2257.4C794.847 2257.39 794.387 2257.56 794.205 2256.9C793.611 2254.71 794.374 2253.63 796.603 2253.62C796.845 2253.62 797.088 2253.61 797.342 2253.62C797.839 2253.63 798.033 2253.38 798.02 2252.9C798.008 2251.95 798.008 2251.02 798.02 2250.08C798.033 2249.55 797.754 2249.39 797.282 2249.41C795.864 2249.43 794.435 2249.33 793.03 2249.5C790.922 2249.76 789.553 2251.27 789.263 2253.43C789.129 2254.41 789.069 2255.4 789.081 2256.38C789.081 2257.13 788.875 2257.55 788.088 2257.4C786.755 2257.16 786.501 2257.85 786.646 2258.99C786.707 2259.48 786.707 2259.98 786.646 2260.47C786.513 2261.51 786.913 2261.94 787.942 2261.78C788.863 2261.64 789.117 2262.08 789.081 2262.96C789.02 2264.62 789.057 2266.31 789.057 2267.99Z" fill="#6BC95B"/>
<path d="M840.804 2260.91C840.841 2250.42 849.344 2241.93 859.761 2242C870.082 2242.07 878.44 2250.63 878.404 2261.09C878.367 2271.59 869.852 2280.07 859.447 2280C849.126 2279.93 840.768 2271.37 840.804 2260.91ZM870.167 2254.23C868.095 2254.77 868.095 2254.77 866.121 2253.9C863.347 2252.68 860.101 2254.62 859.943 2257.73C859.883 2259.03 859.313 2259.1 858.405 2258.89C855.873 2258.33 853.596 2257.28 851.755 2255.37C851.464 2255.07 851.21 2254.47 850.761 2254.65C850.301 2254.82 850.277 2255.44 850.204 2255.92C849.95 2257.62 850.592 2259.03 851.815 2260.22C851.173 2260.5 850.652 2259.75 850.301 2260.27C849.962 2260.76 850.337 2261.31 850.555 2261.8C851.064 2262.91 851.948 2263.64 853.354 2264.35C850.979 2264.54 852.094 2265.36 852.675 2266.07C853.414 2266.96 854.456 2267.33 855.582 2267.64C853.983 2269.19 851.948 2269.26 849.95 2269.67C853.596 2272.48 860.634 2271.85 864.328 2268.47C866.932 2266.08 868.616 2263.18 868.689 2259.58C868.725 2257.98 869.9 2257.18 870.7 2256.04C869.973 2255.83 869.5 2256.43 868.895 2256.09C869.404 2255.58 870.082 2255.18 870.167 2254.23Z" fill="#6BC95B"/>
<path d="M945.208 2261.1C945.148 2271.59 936.62 2280.1 926.239 2280C915.906 2279.9 907.548 2271.33 907.609 2260.9C907.669 2250.41 916.197 2241.9 926.578 2242C936.898 2242.1 945.257 2250.67 945.208 2261.1ZM915.179 2260.95C915.155 2260.95 915.131 2260.95 915.095 2260.95C915.095 2262.89 914.998 2264.82 915.119 2266.73C915.325 2270.18 917.445 2272.35 920.836 2272.46C924.555 2272.58 928.274 2272.58 931.993 2272.46C935.336 2272.35 937.516 2270.22 937.649 2266.85C937.819 2262.8 937.904 2258.74 937.589 2254.7C937.371 2251.87 935.142 2249.75 932.32 2249.7C928.359 2249.61 924.386 2249.61 920.424 2249.7C917.614 2249.76 915.41 2251.88 915.192 2254.73C915.058 2256.8 915.179 2258.88 915.179 2260.95Z" fill="#6BC95B"/>
<path d="M926.312 2269.96C924.604 2269.96 922.896 2269.99 921.176 2269.95C918.862 2269.9 917.602 2268.69 917.578 2266.4C917.542 2262.85 917.542 2259.29 917.578 2255.74C917.602 2253.45 918.862 2252.16 921.139 2252.12C924.652 2252.08 928.177 2252.06 931.69 2252.12C933.955 2252.16 935.191 2253.48 935.215 2255.77C935.251 2259.27 935.251 2262.79 935.215 2266.29C935.191 2268.69 933.967 2269.91 931.569 2269.95C929.824 2269.99 928.068 2269.96 926.312 2269.96ZM926.336 2266.93C929.497 2266.96 932.162 2264.34 932.235 2261.15C932.308 2257.94 929.582 2255.15 926.384 2255.15C923.247 2255.16 920.57 2257.85 920.558 2261.01C920.546 2264.2 923.186 2266.9 926.336 2266.93ZM932.453 2253.59C931.641 2253.72 931.084 2254.11 931.096 2255.01C931.108 2255.83 931.593 2256.29 932.38 2256.31C933.168 2256.34 933.676 2255.91 933.737 2255.09C933.798 2254.19 933.265 2253.76 932.453 2253.59Z" fill="#6BC95B"/>
<path d="M926.336 2257.71C928.153 2257.67 929.63 2259.09 929.691 2260.91C929.752 2262.82 928.334 2264.35 926.469 2264.39C924.664 2264.43 923.174 2263.01 923.113 2261.2C923.041 2259.29 924.47 2257.74 926.336 2257.71Z" fill="#6BC95B"/>
</g>
</g>
<defs>
<linearGradient id="paint0_linear" x1="486.623" y1="-91.6176" x2="587.903" y2="428.849" gradientUnits="userSpaceOnUse">
<stop offset="1.33253e-06" stop-color="white"/>
<stop offset="1" stop-color="#1C93D7"/>
</linearGradient>
<linearGradient id="paint1_linear" x1="604.253" y1="-496.26" x2="977.513" y2="246.525" gradientUnits="userSpaceOnUse">
<stop offset="1.33253e-06" stop-color="white"/>
<stop offset="1" stop-color="#1C93D7"/>
</linearGradient>
<linearGradient id="paint2_linear" x1="1288.71" y1="56.9725" x2="1476.35" y2="305.841" gradientUnits="userSpaceOnUse">
<stop offset="1.33253e-06" stop-color="white"/>
<stop offset="1" stop-color="#1C93D7"/>
</linearGradient>
<linearGradient id="paint3_linear" x1="1190.94" y1="84.8724" x2="1324.88" y2="84.8724" gradientUnits="userSpaceOnUse">
<stop offset="1.33253e-06" stop-color="white"/>
<stop offset="1" stop-color="#1C93D7"/>
</linearGradient>
<linearGradient id="paint4_linear" x1="31.1873" y1="-4.13627" x2="112.251" y2="283.779" gradientUnits="userSpaceOnUse">
<stop stop-color="white"/>
<stop offset="0.0861047" stop-color="#F8FCFE"/>
<stop offset="0.2104" stop-color="#E5F3FA"/>
<stop offset="0.3579" stop-color="#C6E4F5"/>
<stop offset="0.5232" stop-color="#9ACFED"/>
<stop offset="0.7033" stop-color="#62B4E3"/>
<stop offset="0.8932" stop-color="#1E94D7"/>
<stop offset="0.8993" stop-color="#1C93D7"/>
</linearGradient>
<linearGradient id="paint5_linear" x1="1121.66" y1="-33.8415" x2="1166.67" y2="542.747" gradientUnits="userSpaceOnUse">
<stop offset="1.66349e-06" stop-color="white"/>
<stop offset="1" stop-color="#74DBFF"/>
</linearGradient>
<linearGradient id="paint6_linear" x1="454.858" y1="9.46578" x2="1235.73" y2="553.186" gradientUnits="userSpaceOnUse">
<stop offset="1.33253e-06" stop-color="white"/>
<stop offset="0.0308873" stop-color="#F6FBFD"/>
<stop offset="0.3024" stop-color="#A9D6F0"/>
<stop offset="0.5446" stop-color="#6DB9E5"/>
<stop offset="0.7487" stop-color="#41A5DD"/>
<stop offset="0.907" stop-color="#2698D9"/>
<stop offset="1" stop-color="#1C93D7"/>
</linearGradient>
<linearGradient id="paint7_linear" x1="610.274" y1="153.962" x2="1417.47" y2="509.127" gradientUnits="userSpaceOnUse">
<stop offset="1.768e-06" stop-color="white"/>
<stop offset="1" stop-color="#1C93D7"/>
</linearGradient>
<linearGradient id="paint8_linear" x1="83.6544" y1="33.3802" x2="181.925" y2="312.467" gradientUnits="userSpaceOnUse">
<stop offset="1.33253e-06" stop-color="white"/>
<stop offset="1" stop-color="#1C93D7"/>
</linearGradient>
<linearGradient id="paint9_linear" x1="707.748" y1="0" x2="707.748" y2="1977.07" gradientUnits="userSpaceOnUse">
<stop offset="1.66349e-06" stop-color="white"/>
<stop offset="0.0245824" stop-color="#F7FDFF"/>
<stop offset="0.1801" stop-color="#C8F1FF"/>
<stop offset="0.3286" stop-color="#A4E7FF"/>
<stop offset="0.4665" stop-color="#89E1FF"/>
<stop offset="0.5896" stop-color="#7ADCFF"/>
<stop offset="0.6858" stop-color="#74DBFF"/>
</linearGradient>
<linearGradient id="paint10_linear" x1="140.797" y1="900.159" x2="235.747" y2="1111.16" gradientUnits="userSpaceOnUse">
<stop offset="1.33253e-06" stop-color="white"/>
<stop offset="1" stop-color="#1C93D7"/>
</linearGradient>
<linearGradient id="paint11_linear" x1="540.471" y1="955.932" x2="774.193" y2="1364.95" gradientUnits="userSpaceOnUse">
<stop offset="1.33253e-06" stop-color="white"/>
<stop offset="1" stop-color="#1C93D7"/>
</linearGradient>
<linearGradient id="paint12_linear" x1="44.7977" y1="818.906" x2="160.848" y2="1430.81" gradientUnits="userSpaceOnUse">
<stop offset="1.33253e-06" stop-color="white"/>
<stop offset="1" stop-color="#1C93D7"/>
</linearGradient>
<linearGradient id="paint13_linear" x1="946.592" y1="1185.72" x2="1077.41" y2="1185.72" gradientUnits="userSpaceOnUse">
<stop offset="1.33253e-06" stop-color="white"/>
<stop offset="0.0987633" stop-color="#D1E9F7"/>
<stop offset="0.2165" stop-color="#A1D2EF"/>
<stop offset="0.3381" stop-color="#78BFE7"/>
<stop offset="0.4615" stop-color="#57AFE1"/>
<stop offset="0.5873" stop-color="#3DA3DD"/>
<stop offset="0.7164" stop-color="#2B9ADA"/>
<stop offset="0.851" stop-color="#2095D8"/>
<stop offset="1" stop-color="#1C93D7"/>
</linearGradient>
<linearGradient id="paint14_linear" x1="1300.95" y1="991.271" x2="1342.74" y2="1171.01" gradientUnits="userSpaceOnUse">
<stop offset="1.33253e-06" stop-color="white"/>
<stop offset="0.1238" stop-color="#D2EAF7"/>
<stop offset="0.2927" stop-color="#9BD0ED"/>
<stop offset="0.4575" stop-color="#6EBAE5"/>
<stop offset="0.6142" stop-color="#4AA9DF"/>
<stop offset="0.7609" stop-color="#319DDB"/>
<stop offset="0.8936" stop-color="#2196D8"/>
<stop offset="1" stop-color="#1C93D7"/>
</linearGradient>
<linearGradient id="paint15_linear" x1="1006.21" y1="1011.93" x2="1144.06" y2="1720.89" gradientUnits="userSpaceOnUse">
<stop offset="1.33253e-06" stop-color="white"/>
<stop offset="1" stop-color="#1C93D7"/>
</linearGradient>
<linearGradient id="paint16_linear" x1="480.282" y1="1520.53" x2="1341.16" y2="1520.53" gradientUnits="userSpaceOnUse">
<stop offset="1.33253e-06" stop-color="white"/>
<stop offset="1" stop-color="#1C93D7"/>
</linearGradient>
<linearGradient id="paint17_linear" x1="1182.27" y1="948.61" x2="1326.75" y2="1174.96" gradientUnits="userSpaceOnUse">
<stop offset="1.33253e-06" stop-color="white"/>
<stop offset="0.0288976" stop-color="#F3F9FD"/>
<stop offset="0.1757" stop-color="#BBDFF3"/>
<stop offset="0.3231" stop-color="#8AC7EA"/>
<stop offset="0.4679" stop-color="#63B5E3"/>
<stop offset="0.6098" stop-color="#44A6DE"/>
<stop offset="0.7476" stop-color="#2E9BDA"/>
<stop offset="0.8798" stop-color="#2095D8"/>
<stop offset="1" stop-color="#1C93D7"/>
</linearGradient>
<linearGradient id="paint18_linear" x1="722.277" y1="1452.44" x2="751.817" y2="2967.42" gradientUnits="userSpaceOnUse">
<stop offset="2.10766e-06" stop-color="white"/>
<stop offset="1" stop-color="#74DBFF"/>
</linearGradient>
<linearGradient id="paint19_linear" x1="497.047" y1="2376.52" x2="494.975" y2="2518.45" gradientUnits="userSpaceOnUse">
<stop offset="1.33253e-06" stop-color="white"/>
<stop offset="1" stop-color="#1B5B9D"/>
</linearGradient>
<linearGradient id="paint20_linear" x1="455.543" y1="2317.26" x2="373.253" y2="2583.12" gradientUnits="userSpaceOnUse">
<stop offset="1.33253e-06" stop-color="white"/>
<stop offset="1" stop-color="#1B5B9D"/>
</linearGradient>
<linearGradient id="paint21_linear" x1="221.395" y1="2231.98" x2="524.111" y2="2612.76" gradientUnits="userSpaceOnUse">
<stop offset="1.33253e-06" stop-color="white"/>
<stop offset="1" stop-color="#1C93D7"/>
</linearGradient>
<linearGradient id="paint22_linear" x1="1158.28" y1="2019.38" x2="1400.23" y2="2351.35" gradientUnits="userSpaceOnUse">
<stop offset="1.33253e-06" stop-color="white"/>
<stop offset="1" stop-color="#1C93D7"/>
</linearGradient>
<linearGradient id="paint23_linear" x1="916.198" y1="1840.78" x2="896.505" y2="2887.34" gradientUnits="userSpaceOnUse">
<stop offset="1.66349e-06" stop-color="white"/>
<stop offset="1" stop-color="#74DBFF"/>
</linearGradient>
<linearGradient id="paint24_linear" x1="1034.48" y1="2148.14" x2="1374.9" y2="2783.96" gradientUnits="userSpaceOnUse">
<stop offset="1.33253e-06" stop-color="white"/>
<stop offset="1" stop-color="#1C93D7"/>
</linearGradient>
<linearGradient id="paint25_linear" x1="789.697" y1="2262.19" x2="630.207" y2="3870.37" gradientUnits="userSpaceOnUse">
<stop offset="1.66349e-06" stop-color="white"/>
<stop offset="1" stop-color="#74DBFF"/>
</linearGradient>
<clipPath id="clip0">
<rect width="1752" height="3216" fill="white" transform="translate(-189)"/>
</clipPath>
<clipPath id="clip1">
<rect width="238" height="38" fill="white" transform="translate(774 2242)"/>
</clipPath>
</defs>
</svg>
