<svg width="1440" height="3583" viewBox="0 0 1440 3583" fill="none" xmlns="http://www.w3.org/2000/svg">
<g clip-path="url(#clip0)">
<path d="M-124.985 491.888L1586 496.631L1571.92 1931.21L-148.47 1889.05L-124.985 491.888Z" fill="url(#paint0_linear)"/>
<path d="M-69.4463 1513.08L136.796 1445.06L481.349 1496.63L851.683 1412.24L1090.74 1484.92L1100.15 1639.63L-125.673 1691.19L-69.4463 1513.08Z" fill="url(#paint1_linear)"/>
<path d="M1341.58 1395.86L1407.14 1424.02L1500.93 1534.19L1463.45 1620.88L1341.58 1395.86Z" fill="url(#paint2_linear)"/>
<path d="M1214.98 1283.32L1329.8 1412.24L1210.31 1419.28L1214.98 1283.32Z" fill="url(#paint3_linear)"/>
<path d="M-109.302 1431.06L118.054 1688.9L-156.12 1845.98L-109.302 1431.06Z" fill="url(#paint4_linear)"/>
<path d="M886.873 1510.71L1018.07 1360.67L1214.98 1283.32L1287.65 1393.49L1341.58 1395.86L1475.15 1573.98L1465.74 1909.25L997.032 1759.21L886.873 1510.71Z" fill="url(#paint5_linear)"/>
<path d="M-235.833 1.07129L29.0082 896.553L544.69 1020.81L1189.2 943.455L1343.88 1299.77L1191.57 1803.74" stroke="#6BC95B" stroke-width="10" stroke-miterlimit="10"/>
<path d="M-212.729 70.0076L20.8231 922.338L603.825 1033.13L1200.6 908.03L1352.68 1268.7L1221.4 1809.02" stroke="#5EC464" stroke-width="10" stroke-miterlimit="10"/>
<path d="M-189.627 138.867L12.6373 948.122L663.035 1045.44L1211.92 872.606L1361.47 1237.64L1251.31 1814.3" stroke="#50BF6D" stroke-width="10" stroke-miterlimit="10"/>
<path d="M-166.601 207.803L4.3755 973.906L722.169 1057.69L1223.32 837.258L1370.27 1206.58L1281.23 1819.58" stroke="#43BA75" stroke-width="10" stroke-miterlimit="10"/>
<path d="M-143.498 276.74L-3.81019 999.69L781.379 1070L1234.71 801.833L1379.07 1175.51L1311.06 1824.86" stroke="#35B57E" stroke-width="10" stroke-miterlimit="10"/>
<path d="M618.436 1268.09C727.754 1358.14 853.213 1431.52 946.389 1538.17C1089.06 1701.52 1321.62 1738.32 1367.98 1776.5C1411.5 1812.39 1191.11 1725.01 1224.92 1769.54C1198.91 1774.67 1166.71 1770 1139.7 1769.62C1091.51 1768.93 1043.31 1768.24 995.119 1767.55C913.035 1766.4 830.951 1765.18 748.867 1764.03C744.889 1763.96 740.835 1763.96 736.857 1763.88L618.436 1268.09Z" fill="url(#paint6_linear)"/>
<path d="M845.333 1626.47C1171.14 1762.43 1363.69 1742.76 1573.61 1777.96L1346.25 1890.5L845.333 1626.47Z" fill="url(#paint7_linear)"/>
<path d="M-97.1388 1730.37L94.4921 1538.63L390.545 1483.24L618.436 1268.09C618.436 1268.09 693.176 1365.95 693.253 1366.1C771.741 1468.85 841.049 1585.15 941.723 1668.47C1087.68 1789.36 1270.67 1784.61 1449.07 1796.4L1455.8 2923.63L-122.307 2885.3L-97.1388 1730.37Z" fill="url(#paint8_linear)"/>
<path d="M412.729 2361.05L695.242 2637.4L508.813 2656.38L412.729 2361.05Z" fill="url(#paint9_linear)"/>
<path d="M258.047 2372.75L365.835 2464.18L206.487 2557.91L258.047 2372.75Z" fill="url(#paint10_linear)"/>
<path d="M-159.18 2412.61L-18.4978 2314.15L258.047 2372.75L302.57 2452.48L220.563 2747.81L-187.255 2710.32L-159.18 2412.61Z" fill="white"/>
<path d="M-184.195 2512.61L108.032 2586.91L-2.58578 2724.4L-275 2609.17L-184.195 2512.61Z" fill="url(#paint11_linear)"/>
<path d="M909.593 2497.01L1054.94 2562.65L1059.61 2647.04L909.593 2497.01Z" fill="url(#paint12_linear)"/>
<path d="M1186.21 2339.93L1373.71 2492.26L1275.26 2642.3L1186.21 2339.93Z" fill="url(#paint13_linear)"/>
<path d="M694.018 2752.48L909.593 2497.01L1019.75 2564.95L1186.21 2339.93L1371.34 2618.89L1434.61 2944.75L836.995 3003.35L694.018 2752.48Z" fill="url(#paint14_linear)"/>
<path d="M672.291 2622.94L1347.93 2707.95L1141.69 2961.12L391.615 2687.06L542.013 2625.54C562.668 2619.88 651.025 2620.26 672.291 2622.94Z" fill="url(#paint15_linear)"/>
<path d="M1455.72 1981.25L1195 2640C1137 2829 1017.5 2759.82 805.171 2759.82L802.035 2758.75C617.289 2694.25 473.24 2547.12 412.729 2361.05L51.8053 2665.79L-177.922 2618.89L-109.5 3279.5H1501.5L1455.72 1981.25Z" fill="white"/>
<path d="M1528.63 2111.31L975.229 1981.25L715.055 2119.58L649.495 2567.32L160.281 2640.62L-86.8882 2843.45L606.885 3389.66L663.724 3581.93" stroke="#6BC95B" stroke-width="10" stroke-miterlimit="10"/>
<path d="M1527.86 2132.05L946.465 1980.33L737.622 2131.21L656.992 2580.71L169.614 2654.08L-79.3149 2856.84L626.468 3342.45L666.783 3581.01" stroke="#5EC464" stroke-width="10" stroke-miterlimit="10"/>
<path d="M1527.17 2152.78L917.625 1979.33L760.113 2142.84L664.488 2594.02L179.024 2667.55L-71.8179 2870.23L646.129 3295.24L669.843 3580.09" stroke="#50BF6D" stroke-width="10" stroke-miterlimit="10"/>
<path d="M1526.41 2173.44L888.785 1978.34L782.68 2154.54L672.062 2607.41L188.357 2681.01L-64.2441 2883.61L665.713 3248.04L672.827 3579.17" stroke="#43BA75" stroke-width="10" stroke-miterlimit="10"/>
<path d="M1525.72 2194.18L860.021 1977.34L805.171 2166.17L679.559 2620.8L197.766 2694.56L-56.7476 2896.93L685.296 3200.83L675.887 3578.26" stroke="#35B57E" stroke-width="10" stroke-miterlimit="10"/>
<path d="M1440.74 1960.81L1087.4 2943.01L1546.85 2937.8L1440.74 1960.81Z" fill="white"/>
</g>
<defs>
<linearGradient id="paint0_linear" x1="718.775" y1="491.913" x2="718.775" y2="1931.23" gradientUnits="userSpaceOnUse">
<stop offset="2.10766e-06" stop-color="white"/>
<stop offset="1" stop-color="#74DBFF"/>
</linearGradient>
<linearGradient id="paint1_linear" x1="487.231" y1="1317.06" x2="487.231" y2="1556.16" gradientUnits="userSpaceOnUse">
<stop offset="1.33253e-06" stop-color="white"/>
<stop offset="1" stop-color="#1C93D7"/>
</linearGradient>
<linearGradient id="paint2_linear" x1="1341.55" y1="1508.38" x2="1500.93" y2="1508.38" gradientUnits="userSpaceOnUse">
<stop offset="1.33253e-06" stop-color="white"/>
<stop offset="1" stop-color="#1C93D7"/>
</linearGradient>
<linearGradient id="paint3_linear" x1="1210.3" y1="1351.32" x2="1329.83" y2="1351.32" gradientUnits="userSpaceOnUse">
<stop offset="1.33253e-06" stop-color="white"/>
<stop offset="1" stop-color="#1C93D7"/>
</linearGradient>
<linearGradient id="paint4_linear" x1="25.8008" y1="1383.13" x2="-18.7447" y2="1751.16" gradientUnits="userSpaceOnUse">
<stop offset="1.33253e-06" stop-color="white"/>
<stop offset="1" stop-color="#1C93D7"/>
</linearGradient>
<linearGradient id="paint5_linear" x1="1181" y1="1283.34" x2="1181" y2="1909.23" gradientUnits="userSpaceOnUse">
<stop offset="1.66349e-06" stop-color="white"/>
<stop offset="1" stop-color="#74DBFF"/>
</linearGradient>
<linearGradient id="paint6_linear" x1="618.438" y1="1526.75" x2="1373.73" y2="1526.75" gradientUnits="userSpaceOnUse">
<stop offset="1.33253e-06" stop-color="white"/>
<stop offset="1" stop-color="#1C93D7"/>
</linearGradient>
<linearGradient id="paint7_linear" x1="1209.46" y1="1626.49" x2="1209.46" y2="1890.48" gradientUnits="userSpaceOnUse">
<stop offset="1.33253e-06" stop-color="white"/>
<stop offset="1" stop-color="#1C93D7"/>
</linearGradient>
<linearGradient id="paint8_linear" x1="666.672" y1="1268.12" x2="666.672" y2="2923.62" gradientUnits="userSpaceOnUse">
<stop offset="1.66349e-06" stop-color="white"/>
<stop offset="1" stop-color="#74DBFF"/>
</linearGradient>
<linearGradient id="paint9_linear" x1="451.447" y1="2330.61" x2="661.95" y2="2772.61" gradientUnits="userSpaceOnUse">
<stop offset="1.33253e-06" stop-color="white"/>
<stop offset="1" stop-color="#1C93D7"/>
</linearGradient>
<linearGradient id="paint10_linear" x1="206.478" y1="2465.33" x2="365.857" y2="2465.33" gradientUnits="userSpaceOnUse">
<stop stop-color="white"/>
<stop offset="1" stop-color="#1C93D7"/>
</linearGradient>
<linearGradient id="paint11_linear" x1="-68.6077" y1="2505.6" x2="-101.431" y2="2709.54" gradientUnits="userSpaceOnUse">
<stop offset="1.33253e-06" stop-color="white"/>
<stop offset="1" stop-color="#1C93D7"/>
</linearGradient>
<linearGradient id="paint12_linear" x1="999.271" y1="2456.62" x2="982" y2="2592.61" gradientUnits="userSpaceOnUse">
<stop stop-color="white"/>
<stop offset="1" stop-color="#1C93D7"/>
</linearGradient>
<linearGradient id="paint13_linear" x1="1186.19" y1="2491.12" x2="1373.7" y2="2491.12" gradientUnits="userSpaceOnUse">
<stop stop-color="white"/>
<stop offset="1" stop-color="#1C93D7"/>
</linearGradient>
<linearGradient id="paint14_linear" x1="1011.47" y1="2331.84" x2="1053.67" y2="2744.41" gradientUnits="userSpaceOnUse">
<stop offset="1.66349e-06" stop-color="white"/>
<stop offset="1" stop-color="#74DBFF"/>
</linearGradient>
<linearGradient id="paint15_linear" x1="865.976" y1="2537.89" x2="872.983" y2="2832.14" gradientUnits="userSpaceOnUse">
<stop stop-color="white"/>
<stop offset="1" stop-color="#1C93D7"/>
</linearGradient>
<clipPath id="clip0">
<rect width="1861" height="3583" fill="white" transform="translate(-275)"/>
</clipPath>
</defs>
</svg>
