<svg width="1440" height="1322" viewBox="0 0 1440 1322" fill="none" xmlns="http://www.w3.org/2000/svg">
<path d="M1605 -140H-198V1322H1605V-140Z" fill="url(#paint0_linear)"/>
<path d="M625.97 590.16L722.864 565.911C747.928 559.63 774.015 559.046 799.372 564.086L958.817 596.076L1254.69 573.727C1293.71 570.805 1332.95 576.867 1369.27 591.402L1451.4 624.415L1394.7 737.77L682.747 672.109L625.97 590.16Z" fill="url(#paint1_linear)"/>
<path d="M1174.89 670.867L1292.54 618.353L1326.45 624.853C1353.92 630.112 1382.35 628.213 1408.87 619.302L1582.35 560.945L1579.42 821.471L1246.8 841.922L1174.89 670.867Z" fill="url(#paint2_linear)"/>
<path d="M107.445 563.574L260.679 613.532L150.777 679.631L107.445 563.574Z" fill="url(#paint3_linear)"/>
<path d="M256.805 666.996L107.444 563.574L-123.174 691.171L-167.967 1026.78L420.854 1060.38L256.805 666.996Z" fill="white"/>
<path d="M463.31 487.177L840.877 639.388L776.719 712.499L463.31 487.177Z" fill="url(#paint4_linear)"/>
<path d="M991.626 485.277L1387.39 834.326L1088.67 907.948L991.626 485.277Z" fill="url(#paint5_linear)"/>
<path d="M263.309 621.493L463.31 487.176L625.093 577.305C717.603 628.87 832.328 618.133 913.658 550.281L991.626 485.277C999.591 516.684 1029.33 608.054 1097.44 656.186C1158.31 699.279 1176.43 779.693 1206.9 829.87C1222.39 855.434 1135.95 815.92 1151.51 841.483C1159.4 854.484 1189.14 810.442 1197.11 823.443C1203.98 834.691 1213.26 845.062 1219.1 856.821C1220.34 859.378 1221.37 862.518 1219.76 864.856C1218.81 866.17 1217.2 866.901 1215.67 867.412C1202.81 872.086 1189.14 874.058 1175.92 877.491C1158.31 882.092 1140.7 886.694 1123.16 891.222C1071.13 904.807 1019.1 918.392 967.001 931.904C908.25 947.242 849.5 962.507 790.822 977.845C740.329 990.992 689.909 1004.14 639.415 1017.36C612.159 1024.44 584.903 1031.6 557.647 1038.69C556.185 1039.05 554.797 1039.42 553.335 1039.78L263.309 621.493Z" fill="white"/>
<path d="M-73.9956 642.747L98.3833 549.843L541.643 632.668L935.652 728.128L1508.11 -108.01" stroke="#6BC95B" stroke-width="10" stroke-miterlimit="10"/>
<path d="M-72.9727 698.475L146.757 535.308L505.838 649.174L917.749 746.096L1522.28 -10.3579" stroke="#5EC464" stroke-width="10" stroke-miterlimit="10"/>
<path d="M-71.8765 754.203L195.205 520.774L470.032 665.681L899.774 763.99L1536.46 87.3669" stroke="#50BF6D" stroke-width="10" stroke-miterlimit="10"/>
<path d="M-70.7803 809.931L243.579 506.239L434.226 682.188L881.871 781.958L1550.63 185.092" stroke="#43BA75" stroke-width="10" stroke-miterlimit="10"/>
<path d="M-69.6841 865.659L292.027 491.705L398.348 698.694L863.968 799.852L1564.81 282.816" stroke="#35B57E" stroke-width="10" stroke-miterlimit="10"/>
<path d="M332.071 477.536L905.108 812.415L1063.38 849.81L638.612 999.1L332.071 477.536Z" fill="url(#paint6_linear)"/>
<path d="M409.308 655.383C534.701 751.72 693.123 774.289 846.138 790.868C933.679 800.363 1029.11 803.504 1111.98 835.714C1010.77 855.653 909.273 874.497 807.921 893.852C759.985 902.981 712.049 912.184 664.114 921.314C595.571 850.102 527.029 778.89 458.706 707.459C442.484 690.441 423.265 669.991 408.432 654.726C408.724 654.945 409.016 655.164 409.308 655.383Z" fill="url(#paint7_linear)"/>
<path d="M-15.0986 828.483L332.144 477.536C378.399 539.399 426.7 599.801 471.201 662.979C511.903 720.752 557.72 773.996 616.397 814.679C668.352 850.686 729.149 875.519 792.21 879.025C856.076 882.604 918.846 864.637 980.519 847.838C1053.52 827.898 1127.25 810.515 1200.91 793.132C1237.74 784.441 1274.56 775.749 1311.32 766.693C1329.59 762.164 1532.22 718.415 1551.29 713.302C1566.64 709.212 1579.72 719.583 1587.39 732.949C1595.5 747.045 1589.07 783.564 1588.7 799.633C1588.19 821.836 1587.17 844.04 1587.17 866.243C1587.17 924.162 1587.17 982.081 1587.17 1040C1587.17 1048.77 1587.17 1057.53 1587.17 1066.29L-16.9985 1080.46L-15.0986 828.483Z" fill="white"/>
<path d="M332.144 311.374V472.058" stroke="white" stroke-width="2" stroke-miterlimit="10"/>
<path d="M332.144 475.272C333.435 475.272 334.482 474.225 334.482 472.934C334.482 471.644 333.435 470.597 332.144 470.597C330.852 470.597 329.805 471.644 329.805 472.934C329.805 474.225 330.852 475.272 332.144 475.272Z" fill="white"/>
<path d="M463.529 399.969V481.845" stroke="white" stroke-width="2" stroke-miterlimit="10"/>
<path d="M463.529 485.059C464.82 485.059 465.867 484.012 465.867 482.721C465.867 481.43 464.82 480.384 463.529 480.384C462.237 480.384 461.19 481.43 461.19 482.721C461.19 484.012 462.237 485.059 463.529 485.059Z" fill="white"/>
<defs>
<linearGradient id="paint0_linear" x1="716.379" y1="-96.3448" x2="701.468" y2="700.297" gradientUnits="userSpaceOnUse">
<stop offset="1.44575e-06" stop-color="#C1EFFF"/>
<stop offset="1" stop-color="#74DBFF"/>
</linearGradient>
<linearGradient id="paint1_linear" x1="1062.51" y1="435.756" x2="1040.95" y2="591.067" gradientUnits="userSpaceOnUse">
<stop offset="1.33253e-06" stop-color="white"/>
<stop offset="1" stop-color="#1C93D7"/>
</linearGradient>
<linearGradient id="paint2_linear" x1="1434.43" y1="475.615" x2="1379.26" y2="736.697" gradientUnits="userSpaceOnUse">
<stop offset="1.33253e-06" stop-color="white"/>
<stop offset="1" stop-color="#1C93D7"/>
</linearGradient>
<linearGradient id="paint3_linear" x1="107.428" y1="621.6" x2="260.66" y2="621.6" gradientUnits="userSpaceOnUse">
<stop offset="1.33253e-06" stop-color="white"/>
<stop offset="1" stop-color="#1C93D7"/>
</linearGradient>
<linearGradient id="paint4_linear" x1="397.301" y1="452.196" x2="839" y2="692.559" gradientUnits="userSpaceOnUse">
<stop offset="1.33253e-06" stop-color="white"/>
<stop offset="1" stop-color="#1C93D7"/>
</linearGradient>
<linearGradient id="paint5_linear" x1="991.641" y1="696.641" x2="1387.36" y2="696.641" gradientUnits="userSpaceOnUse">
<stop offset="1.33253e-06" stop-color="white"/>
<stop offset="1" stop-color="#1C93D7"/>
</linearGradient>
<linearGradient id="paint6_linear" x1="332.104" y1="738.328" x2="1063.41" y2="738.328" gradientUnits="userSpaceOnUse">
<stop offset="4.44177e-07" stop-color="#89C7EA"/>
<stop offset="1" stop-color="#1C93D7"/>
</linearGradient>
<linearGradient id="paint7_linear" x1="408.481" y1="788.027" x2="1112.01" y2="788.027" gradientUnits="userSpaceOnUse">
<stop offset="1.33253e-06" stop-color="white"/>
<stop offset="1" stop-color="#1C93D7"/>
</linearGradient>
</defs>
</svg>
