<svg width="425" height="93" viewBox="0 0 425 93" fill="none" xmlns="http://www.w3.org/2000/svg">
<path d="M0.33 -6.19888e-06H21.91C29.2767 -6.19888e-06 34.65 1.73333 38.03 5.2C41.41 8.57999 43.1 13.8233 43.1 20.93V24.57C43.1 29.25 42.32 33.0633 40.76 36.01C39.2867 38.9567 36.99 41.08 33.87 42.38V42.64C40.9767 45.0667 44.53 51.3933 44.53 61.62V69.42C44.53 76.44 42.6667 81.8133 38.94 85.54C35.3 89.18 29.9267 91 22.82 91H0.33V-6.19888e-06ZM20.22 37.05C23.08 37.05 25.2033 36.3133 26.59 34.84C28.0633 33.3667 28.8 30.8967 28.8 27.43V22.36C28.8 19.0667 28.1933 16.6833 26.98 15.21C25.8533 13.7367 24.0333 13 21.52 13H14.63V37.05H20.22ZM22.82 78C25.3333 78 27.1967 77.35 28.41 76.05C29.6233 74.6633 30.23 72.3233 30.23 69.03V61.1C30.23 56.94 29.4933 54.08 28.02 52.52C26.6333 50.8733 24.2933 50.05 21 50.05H14.63V78H22.82ZM52.8886 -6.19888e-06H67.1886V91H52.8886V-6.19888e-06ZM77.8984 -6.19888e-06H116.898V13H92.1984V37.05H111.828V50.05H92.1984V78H116.898V91H77.8984V-6.19888e-06ZM125.125 -6.19888e-06H143.065L156.975 54.47H157.235V-6.19888e-06H169.975V91H155.285L138.125 24.57H137.865V91H125.125V-6.19888e-06ZM176.833 -6.19888e-06H191.263L200.623 70.59H200.883L210.243 -6.19888e-06H223.373L209.593 91H190.613L176.833 -6.19888e-06ZM230.242 -6.19888e-06H269.242V13H244.542V37.05H264.172V50.05H244.542V78H269.242V91H230.242V-6.19888e-06ZM277.469 -6.19888e-06H295.409L309.319 54.47H309.579V-6.19888e-06H322.319V91H307.629L290.469 24.57H290.209V91H277.469V-6.19888e-06ZM353.747 92.3C346.814 92.3 341.527 90.35 337.887 86.45C334.247 82.4633 332.427 76.7867 332.427 69.42V-6.19888e-06H346.727V70.46C346.727 73.58 347.334 75.8333 348.547 77.22C349.847 78.6067 351.667 79.3 354.007 79.3C356.347 79.3 358.124 78.6067 359.337 77.22C360.637 75.8333 361.287 73.58 361.287 70.46V-6.19888e-06H375.067V69.42C375.067 76.7867 373.247 82.4633 369.607 86.45C365.967 90.35 360.681 92.3 353.747 92.3ZM385.252 -6.19888e-06H424.252V13H399.552V37.05H419.182V50.05H399.552V78H424.252V91H385.252V-6.19888e-06Z" fill="black"/>
</svg>
