<svg width="782" height="89" viewBox="0 0 782 89" fill="none" xmlns="http://www.w3.org/2000/svg">
<path d="M3.186 10.486L2.25 19H0.72L2.25 5.77L7.29 14.896L12.33 5.77L13.86 19H12.33L11.394 10.486L7.29 17.83L3.186 10.486ZM15.2023 14.86C15.2023 14.02 15.3883 13.276 15.7603 12.628C16.1443 11.98 16.6603 11.47 17.3083 11.098C17.9563 10.726 18.6823 10.54 19.4863 10.54C20.3023 10.54 21.0283 10.726 21.6643 11.098C22.3123 11.47 22.8223 11.98 23.1943 12.628C23.5783 13.276 23.7703 14.02 23.7703 14.86C23.7703 15.688 23.5783 16.432 23.1943 17.092C22.8223 17.74 22.3123 18.25 21.6643 18.622C21.0283 18.994 20.3023 19.18 19.4863 19.18C18.6823 19.18 17.9563 18.994 17.3083 18.622C16.6603 18.25 16.1443 17.74 15.7603 17.092C15.3883 16.432 15.2023 15.688 15.2023 14.86ZM16.6603 14.86C16.6603 15.436 16.7803 15.946 17.0203 16.39C17.2723 16.834 17.6083 17.188 18.0283 17.452C18.4603 17.704 18.9463 17.83 19.4863 17.83C20.0263 17.83 20.5063 17.704 20.9263 17.452C21.3583 17.188 21.6943 16.834 21.9343 16.39C22.1863 15.946 22.3123 15.436 22.3123 14.86C22.3123 14.284 22.1863 13.774 21.9343 13.33C21.6943 12.874 21.3583 12.52 20.9263 12.268C20.5063 12.016 20.0263 11.89 19.4863 11.89C18.9463 11.89 18.4603 12.016 18.0283 12.268C17.6083 12.52 17.2723 12.874 17.0203 13.33C16.7803 13.774 16.6603 14.284 16.6603 14.86ZM25.7484 7.3C25.7484 7.024 25.8444 6.79 26.0364 6.598C26.2404 6.406 26.4744 6.31 26.7384 6.31C27.0144 6.31 27.2484 6.406 27.4404 6.598C27.6324 6.79 27.7284 7.024 27.7284 7.3C27.7284 7.564 27.6324 7.798 27.4404 8.002C27.2484 8.194 27.0144 8.29 26.7384 8.29C26.4744 8.29 26.2404 8.194 26.0364 8.002C25.8444 7.798 25.7484 7.564 25.7484 7.3ZM26.0184 10.72H27.4584V19H26.0184V10.72ZM36.4687 14.86C36.4687 15.436 36.5887 15.946 36.8287 16.39C37.0807 16.834 37.4167 17.188 37.8367 17.452C38.2687 17.704 38.7547 17.83 39.2947 17.83C39.9667 17.83 40.5667 17.68 41.0947 17.38C41.6227 17.08 41.9827 16.726 42.1747 16.318V18.118C41.8867 18.454 41.4727 18.718 40.9327 18.91C40.4047 19.09 39.8587 19.18 39.2947 19.18C38.4907 19.18 37.7647 18.994 37.1167 18.622C36.4687 18.25 35.9527 17.74 35.5687 17.092C35.1967 16.432 35.0107 15.688 35.0107 14.86C35.0107 14.02 35.1967 13.276 35.5687 12.628C35.9527 11.98 36.4687 11.47 37.1167 11.098C37.7647 10.726 38.4907 10.54 39.2947 10.54C39.8587 10.54 40.4047 10.636 40.9327 10.828C41.4727 11.008 41.8867 11.266 42.1747 11.602V13.402C41.9827 12.994 41.6227 12.64 41.0947 12.34C40.5667 12.04 39.9667 11.89 39.2947 11.89C38.7547 11.89 38.2687 12.016 37.8367 12.268C37.4167 12.52 37.0807 12.874 36.8287 13.33C36.5887 13.774 36.4687 14.284 36.4687 14.86ZM44.5015 6.4H46.2115L44.4115 10.54H43.4215L44.5015 6.4ZM51.136 19.18C50.368 19.18 49.684 19 49.084 18.64C48.496 18.268 48.034 17.758 47.698 17.11C47.374 16.462 47.212 15.712 47.212 14.86C47.212 13.996 47.38 13.24 47.716 12.592C48.064 11.944 48.544 11.44 49.156 11.08C49.78 10.72 50.5 10.54 51.316 10.54C52.528 10.54 53.482 10.918 54.178 11.674C54.874 12.43 55.222 13.468 55.222 14.788C55.222 14.872 55.216 14.962 55.204 15.058C55.204 15.142 55.204 15.196 55.204 15.22H48.688C48.748 16.048 49.006 16.69 49.462 17.146C49.918 17.602 50.536 17.83 51.316 17.83C52.444 17.83 53.308 17.332 53.908 16.336L55.078 17.074C54.214 18.478 52.9 19.18 51.136 19.18ZM51.316 11.8C50.608 11.8 50.032 11.992 49.588 12.376C49.144 12.748 48.862 13.288 48.742 13.996H53.656C53.608 13.336 53.368 12.808 52.936 12.412C52.516 12.004 51.976 11.8 51.316 11.8ZM57.5377 16.462C57.7897 16.846 58.0957 17.176 58.4557 17.452C58.8277 17.728 59.2717 17.866 59.7877 17.866C60.1957 17.866 60.5137 17.776 60.7417 17.596C60.9817 17.404 61.1017 17.146 61.1017 16.822C61.1017 16.534 61.0057 16.294 60.8137 16.102C60.6337 15.898 60.3997 15.73 60.1117 15.598C59.8237 15.454 59.5177 15.322 59.1937 15.202C58.8337 15.058 58.4677 14.89 58.0957 14.698C57.7357 14.494 57.4297 14.236 57.1777 13.924C56.9377 13.6 56.8177 13.198 56.8177 12.718C56.8177 12.226 56.9437 11.818 57.1957 11.494C57.4597 11.17 57.7957 10.93 58.2037 10.774C58.6237 10.618 59.0557 10.54 59.4997 10.54C60.1597 10.54 60.7597 10.696 61.2997 11.008C61.8397 11.32 62.2357 11.704 62.4877 12.16L61.3357 12.898C61.1077 12.586 60.8197 12.328 60.4717 12.124C60.1357 11.92 59.7517 11.818 59.3197 11.818C59.0197 11.818 58.7617 11.884 58.5457 12.016C58.3297 12.148 58.2217 12.352 58.2217 12.628C58.2217 12.964 58.3957 13.24 58.7437 13.456C59.1037 13.66 59.5057 13.852 59.9497 14.032C60.4297 14.224 60.8677 14.434 61.2637 14.662C61.6597 14.878 61.9717 15.142 62.1997 15.454C62.4397 15.766 62.5597 16.168 62.5597 16.66C62.5597 17.38 62.2957 17.98 61.7677 18.46C61.2517 18.94 60.5677 19.18 59.7157 19.18C59.1637 19.18 58.6657 19.084 58.2217 18.892C57.7777 18.688 57.3997 18.43 57.0877 18.118C56.7877 17.806 56.5597 17.488 56.4037 17.164L57.5377 16.462ZM63.1955 10.72H64.5455V7.84H65.9855V10.72H67.3355V12.07H65.9855V19H64.5455V12.07H63.1955V10.72ZM81.9702 15.31C81.9702 16.138 81.7782 16.828 81.3942 17.38C81.0222 17.92 80.5122 18.328 79.8642 18.604C79.2282 18.868 78.5022 19 77.6862 19H74.2662V6.4H77.5062C78.6342 6.4 79.5402 6.658 80.2242 7.174C80.9082 7.69 81.2502 8.482 81.2502 9.55C81.2502 10.198 81.0642 10.744 80.6922 11.188C80.3202 11.62 79.8102 11.932 79.1622 12.124C79.9902 12.292 80.6622 12.64 81.1782 13.168C81.7062 13.684 81.9702 14.398 81.9702 15.31ZM77.5062 7.75H75.7962V11.494H77.5062C78.1422 11.494 78.6702 11.332 79.0902 11.008C79.5102 10.684 79.7202 10.228 79.7202 9.64C79.7202 9.04 79.5102 8.578 79.0902 8.254C78.6702 7.918 78.1422 7.75 77.5062 7.75ZM75.7962 17.65H77.6862C78.5022 17.65 79.1622 17.44 79.6662 17.02C80.1822 16.588 80.4402 15.988 80.4402 15.22C80.4402 14.44 80.1822 13.846 79.6662 13.438C79.1622 13.03 78.5022 12.826 77.6862 12.826H75.7962V17.65ZM87.4173 19.18C86.6493 19.18 85.9653 19 85.3653 18.64C84.7773 18.268 84.3153 17.758 83.9793 17.11C83.6553 16.462 83.4933 15.712 83.4933 14.86C83.4933 13.996 83.6613 13.24 83.9973 12.592C84.3453 11.944 84.8253 11.44 85.4373 11.08C86.0613 10.72 86.7813 10.54 87.5973 10.54C88.8093 10.54 89.7633 10.918 90.4593 11.674C91.1553 12.43 91.5033 13.468 91.5033 14.788C91.5033 14.872 91.4973 14.962 91.4853 15.058C91.4853 15.142 91.4853 15.196 91.4853 15.22H84.9693C85.0293 16.048 85.2873 16.69 85.7433 17.146C86.1993 17.602 86.8173 17.83 87.5973 17.83C88.7253 17.83 89.5893 17.332 90.1893 16.336L91.3593 17.074C90.4953 18.478 89.1813 19.18 87.4173 19.18ZM87.5973 11.8C86.8893 11.8 86.3133 11.992 85.8693 12.376C85.4253 12.748 85.1433 13.288 85.0233 13.996H89.9373C89.8893 13.336 89.6493 12.808 89.2173 12.412C88.7973 12.004 88.2573 11.8 87.5973 11.8ZM98.787 13.96C98.787 12.58 98.199 11.89 97.023 11.89C96.399 11.89 95.889 12.082 95.493 12.466C95.109 12.85 94.917 13.348 94.917 13.96V19H93.477V10.72H94.917V12.016C95.457 11.032 96.279 10.54 97.383 10.54C98.259 10.54 98.949 10.834 99.453 11.422C99.969 11.998 100.227 12.784 100.227 13.78V19H98.787V13.96ZM102.7 7.3C102.7 7.024 102.796 6.796 102.988 6.616C103.18 6.424 103.408 6.328 103.672 6.328C103.948 6.328 104.176 6.424 104.356 6.616C104.548 6.796 104.644 7.024 104.644 7.3C104.644 7.564 104.548 7.792 104.356 7.984C104.176 8.176 103.948 8.272 103.672 8.272C103.408 8.272 103.18 8.176 102.988 7.984C102.796 7.792 102.7 7.564 102.7 7.3ZM101.278 21.052C101.47 21.364 101.764 21.52 102.16 21.52C102.472 21.52 102.694 21.394 102.826 21.142C102.958 20.89 103.024 20.476 103.024 19.9V10.72H104.464V20.08C104.464 20.992 104.254 21.7 103.834 22.204C103.414 22.708 102.826 22.96 102.07 22.96C101.374 22.96 100.846 22.72 100.486 22.24L101.278 21.052ZM107.866 12.628L107.164 11.566C107.476 11.338 107.902 11.11 108.442 10.882C108.994 10.654 109.654 10.54 110.422 10.54C111.382 10.54 112.162 10.762 112.762 11.206C113.362 11.638 113.662 12.256 113.662 13.06V19H112.222V17.884C111.958 18.316 111.562 18.64 111.034 18.856C110.506 19.072 109.99 19.18 109.486 19.18C108.982 19.18 108.508 19.078 108.064 18.874C107.632 18.658 107.284 18.352 107.02 17.956C106.756 17.56 106.624 17.08 106.624 16.516C106.624 15.712 106.906 15.07 107.47 14.59C108.046 14.098 108.844 13.852 109.864 13.852C110.416 13.852 110.884 13.918 111.268 14.05C111.664 14.17 111.982 14.308 112.222 14.464V13.258C112.222 12.694 112.036 12.31 111.664 12.106C111.304 11.902 110.866 11.8 110.35 11.8C109.726 11.8 109.204 11.902 108.784 12.106C108.364 12.31 108.058 12.484 107.866 12.628ZM108.082 16.444C108.082 16.924 108.244 17.296 108.568 17.56C108.904 17.812 109.336 17.938 109.864 17.938C110.524 17.938 111.082 17.74 111.538 17.344C111.994 16.948 112.222 16.42 112.222 15.76V15.454C111.886 15.286 111.544 15.166 111.196 15.094C110.848 15.022 110.482 14.986 110.098 14.986C109.402 14.986 108.892 15.118 108.568 15.382C108.244 15.634 108.082 15.988 108.082 16.444ZM127.44 13.78V19H126V13.96C126 13.252 125.868 12.73 125.604 12.394C125.352 12.058 124.956 11.89 124.416 11.89C123.828 11.89 123.36 12.076 123.012 12.448C122.664 12.808 122.49 13.312 122.49 13.96V19H121.05V13.96C121.05 13.252 120.918 12.73 120.654 12.394C120.402 12.058 120.006 11.89 119.466 11.89C118.878 11.89 118.41 12.076 118.062 12.448C117.714 12.808 117.54 13.312 117.54 13.96V19H116.1V10.72H117.54V11.926C118.032 11.002 118.794 10.54 119.826 10.54C120.402 10.54 120.894 10.678 121.302 10.954C121.722 11.218 122.028 11.596 122.22 12.088C122.796 11.056 123.648 10.54 124.776 10.54C125.628 10.54 126.282 10.822 126.738 11.386C127.206 11.95 127.44 12.748 127.44 13.78ZM130.145 7.3C130.145 7.024 130.241 6.79 130.433 6.598C130.637 6.406 130.871 6.31 131.135 6.31C131.411 6.31 131.645 6.406 131.837 6.598C132.029 6.79 132.125 7.024 132.125 7.3C132.125 7.564 132.029 7.798 131.837 8.002C131.645 8.194 131.411 8.29 131.135 8.29C130.871 8.29 130.637 8.194 130.433 8.002C130.241 7.798 130.145 7.564 130.145 7.3ZM130.415 10.72H131.855V19H130.415V10.72ZM140.131 13.96C140.131 12.58 139.543 11.89 138.367 11.89C137.743 11.89 137.233 12.082 136.837 12.466C136.453 12.85 136.261 13.348 136.261 13.96V19H134.821V10.72H136.261V12.016C136.801 11.032 137.623 10.54 138.727 10.54C139.603 10.54 140.293 10.834 140.797 11.422C141.313 11.998 141.571 12.784 141.571 13.78V19H140.131V13.96ZM149.764 6.4H151.294V11.44H158.224V6.4H159.754V19H158.224V12.88H151.294V19H149.764V6.4ZM161.821 14.86C161.821 14.02 162.007 13.276 162.379 12.628C162.763 11.98 163.279 11.47 163.927 11.098C164.575 10.726 165.301 10.54 166.105 10.54C166.921 10.54 167.647 10.726 168.283 11.098C168.931 11.47 169.441 11.98 169.813 12.628C170.197 13.276 170.389 14.02 170.389 14.86C170.389 15.688 170.197 16.432 169.813 17.092C169.441 17.74 168.931 18.25 168.283 18.622C167.647 18.994 166.921 19.18 166.105 19.18C165.301 19.18 164.575 18.994 163.927 18.622C163.279 18.25 162.763 17.74 162.379 17.092C162.007 16.432 161.821 15.688 161.821 14.86ZM163.279 14.86C163.279 15.436 163.399 15.946 163.639 16.39C163.891 16.834 164.227 17.188 164.647 17.452C165.079 17.704 165.565 17.83 166.105 17.83C166.645 17.83 167.125 17.704 167.545 17.452C167.977 17.188 168.313 16.834 168.553 16.39C168.805 15.946 168.931 15.436 168.931 14.86C168.931 14.284 168.805 13.774 168.553 13.33C168.313 12.874 167.977 12.52 167.545 12.268C167.125 12.016 166.645 11.89 166.105 11.89C165.565 11.89 165.079 12.016 164.647 12.268C164.227 12.52 163.891 12.874 163.639 13.33C163.399 13.774 163.279 14.284 163.279 14.86ZM173.016 14.86C173.016 15.436 173.136 15.946 173.376 16.39C173.628 16.834 173.964 17.188 174.384 17.452C174.816 17.704 175.302 17.83 175.842 17.83C176.514 17.83 177.114 17.68 177.642 17.38C178.17 17.08 178.53 16.726 178.722 16.318V18.118C178.434 18.454 178.02 18.718 177.48 18.91C176.952 19.09 176.406 19.18 175.842 19.18C175.038 19.18 174.312 18.994 173.664 18.622C173.016 18.25 172.5 17.74 172.116 17.092C171.744 16.432 171.558 15.688 171.558 14.86C171.558 14.02 171.744 13.276 172.116 12.628C172.5 11.98 173.016 11.47 173.664 11.098C174.312 10.726 175.038 10.54 175.842 10.54C176.406 10.54 176.952 10.636 177.48 10.828C178.02 11.008 178.434 11.266 178.722 11.602V13.402C178.53 12.994 178.17 12.64 177.642 12.34C177.114 12.04 176.514 11.89 175.842 11.89C175.302 11.89 174.816 12.016 174.384 12.268C173.964 12.52 173.628 12.874 173.376 13.33C173.136 13.774 173.016 14.284 173.016 14.86ZM180.243 14.86C180.243 13.96 180.429 13.192 180.801 12.556C181.173 11.908 181.671 11.41 182.295 11.062C182.919 10.714 183.603 10.54 184.347 10.54C184.959 10.54 185.505 10.678 185.985 10.954C186.477 11.23 186.873 11.626 187.173 12.142V10.72H188.613V22.96H187.173V17.578C186.873 18.094 186.477 18.49 185.985 18.766C185.505 19.042 184.959 19.18 184.347 19.18C183.603 19.18 182.919 19.006 182.295 18.658C181.671 18.31 181.173 17.812 180.801 17.164C180.429 16.516 180.243 15.748 180.243 14.86ZM181.701 14.86C181.701 15.496 181.827 16.036 182.079 16.48C182.343 16.924 182.691 17.26 183.123 17.488C183.555 17.716 184.023 17.83 184.527 17.83C184.947 17.83 185.361 17.716 185.769 17.488C186.177 17.26 186.513 16.924 186.777 16.48C187.041 16.036 187.173 15.496 187.173 14.86C187.173 14.224 187.041 13.684 186.777 13.24C186.513 12.796 186.177 12.46 185.769 12.232C185.361 12.004 184.947 11.89 184.527 11.89C184.023 11.89 183.555 12.004 183.123 12.232C182.691 12.46 182.343 12.796 182.079 13.24C181.827 13.684 181.701 14.224 181.701 14.86ZM192.543 17.02L193.983 17.56L192.003 22.06L190.959 21.682L192.543 17.02ZM201.929 7.3C201.929 7.024 202.025 6.796 202.217 6.616C202.409 6.424 202.637 6.328 202.901 6.328C203.177 6.328 203.405 6.424 203.585 6.616C203.777 6.796 203.873 7.024 203.873 7.3C203.873 7.564 203.777 7.792 203.585 7.984C203.405 8.176 203.177 8.272 202.901 8.272C202.637 8.272 202.409 8.176 202.217 7.984C202.025 7.792 201.929 7.564 201.929 7.3ZM200.506 21.052C200.698 21.364 200.993 21.52 201.389 21.52C201.701 21.52 201.923 21.394 202.055 21.142C202.187 20.89 202.253 20.476 202.253 19.9V10.72H203.693V20.08C203.693 20.992 203.483 21.7 203.062 22.204C202.643 22.708 202.055 22.96 201.299 22.96C200.602 22.96 200.074 22.72 199.714 22.24L200.506 21.052ZM209.867 19.18C209.099 19.18 208.415 19 207.815 18.64C207.227 18.268 206.765 17.758 206.429 17.11C206.105 16.462 205.943 15.712 205.943 14.86C205.943 13.996 206.111 13.24 206.447 12.592C206.795 11.944 207.275 11.44 207.887 11.08C208.511 10.72 209.231 10.54 210.047 10.54C211.259 10.54 212.213 10.918 212.909 11.674C213.605 12.43 213.953 13.468 213.953 14.788C213.953 14.872 213.947 14.962 213.935 15.058C213.935 15.142 213.935 15.196 213.935 15.22H207.419C207.479 16.048 207.737 16.69 208.193 17.146C208.649 17.602 209.267 17.83 210.047 17.83C211.175 17.83 212.039 17.332 212.639 16.336L213.809 17.074C212.945 18.478 211.631 19.18 209.867 19.18ZM210.047 11.8C209.339 11.8 208.763 11.992 208.319 12.376C207.875 12.748 207.593 13.288 207.473 13.996H212.387C212.339 13.336 212.099 12.808 211.667 12.412C211.247 12.004 210.707 11.8 210.047 11.8ZM221.665 16.462C221.917 16.846 222.223 17.176 222.583 17.452C222.955 17.728 223.399 17.866 223.915 17.866C224.323 17.866 224.641 17.776 224.869 17.596C225.109 17.404 225.229 17.146 225.229 16.822C225.229 16.534 225.133 16.294 224.941 16.102C224.761 15.898 224.527 15.73 224.239 15.598C223.951 15.454 223.645 15.322 223.321 15.202C222.961 15.058 222.595 14.89 222.223 14.698C221.863 14.494 221.557 14.236 221.305 13.924C221.065 13.6 220.945 13.198 220.945 12.718C220.945 12.226 221.071 11.818 221.323 11.494C221.587 11.17 221.923 10.93 222.331 10.774C222.751 10.618 223.183 10.54 223.627 10.54C224.287 10.54 224.887 10.696 225.427 11.008C225.967 11.32 226.363 11.704 226.615 12.16L225.463 12.898C225.235 12.586 224.947 12.328 224.599 12.124C224.263 11.92 223.879 11.818 223.447 11.818C223.147 11.818 222.889 11.884 222.673 12.016C222.457 12.148 222.349 12.352 222.349 12.628C222.349 12.964 222.523 13.24 222.871 13.456C223.231 13.66 223.633 13.852 224.077 14.032C224.557 14.224 224.995 14.434 225.391 14.662C225.787 14.878 226.099 15.142 226.327 15.454C226.567 15.766 226.687 16.168 226.687 16.66C226.687 17.38 226.423 17.98 225.895 18.46C225.379 18.94 224.695 19.18 223.843 19.18C223.291 19.18 222.793 19.084 222.349 18.892C221.905 18.688 221.527 18.43 221.215 18.118C220.915 17.806 220.687 17.488 220.531 17.164L221.665 16.462ZM230.022 15.76C230.022 16.42 230.172 16.93 230.472 17.29C230.772 17.65 231.21 17.83 231.786 17.83C232.422 17.83 232.932 17.638 233.316 17.254C233.7 16.87 233.892 16.372 233.892 15.76V10.72H235.332V19H233.892V17.704C233.34 18.688 232.518 19.18 231.426 19.18C230.562 19.18 229.872 18.886 229.356 18.298C228.84 17.71 228.582 16.924 228.582 15.94V10.72H230.022V15.76ZM238.039 7.3C238.039 7.024 238.135 6.79 238.327 6.598C238.531 6.406 238.765 6.31 239.029 6.31C239.305 6.31 239.539 6.406 239.731 6.598C239.923 6.79 240.019 7.024 240.019 7.3C240.019 7.564 239.923 7.798 239.731 8.002C239.539 8.194 239.305 8.29 239.029 8.29C238.765 8.29 238.531 8.194 238.327 8.002C238.135 7.798 238.039 7.564 238.039 7.3ZM238.309 10.72H239.749V19H238.309V10.72ZM243.057 16.462C243.309 16.846 243.615 17.176 243.975 17.452C244.347 17.728 244.791 17.866 245.307 17.866C245.715 17.866 246.033 17.776 246.261 17.596C246.501 17.404 246.621 17.146 246.621 16.822C246.621 16.534 246.525 16.294 246.333 16.102C246.153 15.898 245.919 15.73 245.631 15.598C245.343 15.454 245.037 15.322 244.713 15.202C244.353 15.058 243.987 14.89 243.615 14.698C243.255 14.494 242.949 14.236 242.697 13.924C242.457 13.6 242.337 13.198 242.337 12.718C242.337 12.226 242.463 11.818 242.715 11.494C242.979 11.17 243.315 10.93 243.723 10.774C244.143 10.618 244.575 10.54 245.019 10.54C245.679 10.54 246.279 10.696 246.819 11.008C247.359 11.32 247.755 11.704 248.007 12.16L246.855 12.898C246.627 12.586 246.339 12.328 245.991 12.124C245.655 11.92 245.271 11.818 244.839 11.818C244.539 11.818 244.281 11.884 244.065 12.016C243.849 12.148 243.741 12.352 243.741 12.628C243.741 12.964 243.915 13.24 244.263 13.456C244.623 13.66 245.025 13.852 245.469 14.032C245.949 14.224 246.387 14.434 246.783 14.662C247.179 14.878 247.491 15.142 247.719 15.454C247.959 15.766 248.079 16.168 248.079 16.66C248.079 17.38 247.815 17.98 247.287 18.46C246.771 18.94 246.087 19.18 245.235 19.18C244.683 19.18 244.185 19.084 243.741 18.892C243.297 18.688 242.919 18.43 242.607 18.118C242.307 17.806 242.079 17.488 241.923 17.164L243.057 16.462ZM254.651 14.86C254.651 13.96 254.837 13.192 255.209 12.556C255.581 11.908 256.079 11.41 256.703 11.062C257.327 10.714 258.011 10.54 258.755 10.54C259.367 10.54 259.913 10.678 260.393 10.954C260.885 11.23 261.281 11.626 261.581 12.142V4.96H263.021V19H261.581V17.578C261.281 18.094 260.885 18.49 260.393 18.766C259.913 19.042 259.367 19.18 258.755 19.18C258.011 19.18 257.327 19.006 256.703 18.658C256.079 18.31 255.581 17.812 255.209 17.164C254.837 16.516 254.651 15.748 254.651 14.86ZM256.109 14.86C256.109 15.496 256.235 16.036 256.487 16.48C256.751 16.924 257.099 17.26 257.531 17.488C257.963 17.716 258.431 17.83 258.935 17.83C259.355 17.83 259.769 17.716 260.177 17.488C260.585 17.26 260.921 16.924 261.185 16.48C261.449 16.036 261.581 15.496 261.581 14.86C261.581 14.224 261.449 13.684 261.185 13.24C260.921 12.796 260.585 12.46 260.177 12.232C259.769 12.004 259.355 11.89 258.935 11.89C258.431 11.89 257.963 12.004 257.531 12.232C257.099 12.46 256.751 12.796 256.487 13.24C256.235 13.684 256.109 14.224 256.109 14.86ZM268.841 19.18C268.073 19.18 267.389 19 266.789 18.64C266.201 18.268 265.739 17.758 265.403 17.11C265.079 16.462 264.917 15.712 264.917 14.86C264.917 13.996 265.085 13.24 265.421 12.592C265.769 11.944 266.249 11.44 266.861 11.08C267.485 10.72 268.205 10.54 269.021 10.54C270.233 10.54 271.187 10.918 271.883 11.674C272.579 12.43 272.927 13.468 272.927 14.788C272.927 14.872 272.921 14.962 272.909 15.058C272.909 15.142 272.909 15.196 272.909 15.22H266.393C266.453 16.048 266.711 16.69 267.167 17.146C267.623 17.602 268.241 17.83 269.021 17.83C270.149 17.83 271.013 17.332 271.613 16.336L272.783 17.074C271.919 18.478 270.605 19.18 268.841 19.18ZM269.021 11.8C268.313 11.8 267.737 11.992 267.293 12.376C266.849 12.748 266.567 13.288 266.447 13.996H271.361C271.313 13.336 271.073 12.808 270.641 12.412C270.221 12.004 269.681 11.8 269.021 11.8ZM274.901 7.3C274.901 7.024 274.997 6.79 275.189 6.598C275.393 6.406 275.627 6.31 275.891 6.31C276.167 6.31 276.401 6.406 276.593 6.598C276.785 6.79 276.881 7.024 276.881 7.3C276.881 7.564 276.785 7.798 276.593 8.002C276.401 8.194 276.167 8.29 275.891 8.29C275.627 8.29 275.393 8.194 275.189 8.002C274.997 7.798 274.901 7.564 274.901 7.3ZM275.171 10.72H276.611V19H275.171V10.72ZM279.019 19.54H280.477C280.477 19.936 280.585 20.302 280.801 20.638C281.017 20.986 281.323 21.262 281.719 21.466C282.115 21.682 282.583 21.79 283.123 21.79C283.543 21.79 283.957 21.688 284.365 21.484C284.773 21.28 285.109 20.956 285.373 20.512C285.649 20.08 285.787 19.516 285.787 18.82V17.578C285.487 18.094 285.091 18.49 284.599 18.766C284.119 19.042 283.573 19.18 282.961 19.18C282.217 19.18 281.533 19.006 280.909 18.658C280.285 18.31 279.787 17.812 279.415 17.164C279.043 16.516 278.857 15.748 278.857 14.86C278.857 13.96 279.043 13.192 279.415 12.556C279.787 11.908 280.285 11.41 280.909 11.062C281.533 10.714 282.217 10.54 282.961 10.54C283.573 10.54 284.119 10.678 284.599 10.954C285.091 11.23 285.487 11.626 285.787 12.142V10.72H287.227V18.82C287.227 19.768 287.029 20.56 286.633 21.196C286.237 21.844 285.727 22.33 285.103 22.654C284.479 22.978 283.819 23.14 283.123 23.14C282.319 23.14 281.605 22.99 280.981 22.69C280.369 22.39 279.889 21.964 279.541 21.412C279.193 20.872 279.019 20.248 279.019 19.54ZM280.315 14.86C280.315 15.496 280.441 16.036 280.693 16.48C280.957 16.924 281.305 17.26 281.737 17.488C282.169 17.716 282.637 17.83 283.141 17.83C283.561 17.83 283.975 17.716 284.383 17.488C284.791 17.26 285.127 16.924 285.391 16.48C285.655 16.036 285.787 15.496 285.787 14.86C285.787 14.224 285.655 13.684 285.391 13.24C285.127 12.796 284.791 12.46 284.383 12.232C283.975 12.004 283.561 11.89 283.141 11.89C282.637 11.89 282.169 12.004 281.737 12.232C281.305 12.46 280.957 12.796 280.693 13.24C280.441 13.684 280.315 14.224 280.315 14.86ZM295.152 13.96C295.152 12.58 294.564 11.89 293.388 11.89C292.764 11.89 292.254 12.082 291.858 12.466C291.474 12.85 291.282 13.348 291.282 13.96V19H289.842V10.72H291.282V12.016C291.822 11.032 292.644 10.54 293.748 10.54C294.624 10.54 295.314 10.834 295.818 11.422C296.334 11.998 296.592 12.784 296.592 13.78V19H295.152V13.96ZM302.503 19.18C301.735 19.18 301.051 19 300.451 18.64C299.863 18.268 299.401 17.758 299.065 17.11C298.741 16.462 298.579 15.712 298.579 14.86C298.579 13.996 298.747 13.24 299.083 12.592C299.431 11.944 299.911 11.44 300.523 11.08C301.147 10.72 301.867 10.54 302.683 10.54C303.895 10.54 304.849 10.918 305.545 11.674C306.241 12.43 306.589 13.468 306.589 14.788C306.589 14.872 306.583 14.962 306.571 15.058C306.571 15.142 306.571 15.196 306.571 15.22H300.055C300.115 16.048 300.373 16.69 300.829 17.146C301.285 17.602 301.903 17.83 302.683 17.83C303.811 17.83 304.675 17.332 305.275 16.336L306.445 17.074C305.581 18.478 304.267 19.18 302.503 19.18ZM302.683 11.8C301.975 11.8 301.399 11.992 300.955 12.376C300.511 12.748 300.229 13.288 300.109 13.996H305.023C304.975 13.336 304.735 12.808 304.303 12.412C303.883 12.004 303.343 11.8 302.683 11.8ZM312.505 12.304C312.313 12.16 312.139 12.058 311.983 11.998C311.827 11.926 311.629 11.89 311.389 11.89C310.849 11.89 310.483 12.088 310.291 12.484C310.099 12.868 310.003 13.36 310.003 13.96V19H308.563V10.72H310.003V11.674C310.231 11.326 310.501 11.05 310.813 10.846C311.125 10.642 311.437 10.54 311.749 10.54C312.049 10.54 312.325 10.582 312.577 10.666C312.841 10.738 313.081 10.888 313.297 11.116L312.505 12.304ZM319.571 19.54H321.029C321.029 19.936 321.137 20.302 321.353 20.638C321.569 20.986 321.875 21.262 322.271 21.466C322.667 21.682 323.135 21.79 323.675 21.79C324.095 21.79 324.509 21.688 324.917 21.484C325.325 21.28 325.661 20.956 325.925 20.512C326.201 20.08 326.339 19.516 326.339 18.82V17.578C326.039 18.094 325.643 18.49 325.151 18.766C324.671 19.042 324.125 19.18 323.513 19.18C322.769 19.18 322.085 19.006 321.461 18.658C320.837 18.31 320.339 17.812 319.967 17.164C319.595 16.516 319.409 15.748 319.409 14.86C319.409 13.96 319.595 13.192 319.967 12.556C320.339 11.908 320.837 11.41 321.461 11.062C322.085 10.714 322.769 10.54 323.513 10.54C324.125 10.54 324.671 10.678 325.151 10.954C325.643 11.23 326.039 11.626 326.339 12.142V10.72H327.779V18.82C327.779 19.768 327.581 20.56 327.185 21.196C326.789 21.844 326.279 22.33 325.655 22.654C325.031 22.978 324.371 23.14 323.675 23.14C322.871 23.14 322.157 22.99 321.533 22.69C320.921 22.39 320.441 21.964 320.093 21.412C319.745 20.872 319.571 20.248 319.571 19.54ZM320.867 14.86C320.867 15.496 320.993 16.036 321.245 16.48C321.509 16.924 321.857 17.26 322.289 17.488C322.721 17.716 323.189 17.83 323.693 17.83C324.113 17.83 324.527 17.716 324.935 17.488C325.343 17.26 325.679 16.924 325.943 16.48C326.207 16.036 326.339 15.496 326.339 14.86C326.339 14.224 326.207 13.684 325.943 13.24C325.679 12.796 325.343 12.46 324.935 12.232C324.527 12.004 324.113 11.89 323.693 11.89C323.189 11.89 322.721 12.004 322.289 12.232C321.857 12.46 321.509 12.796 321.245 13.24C320.993 13.684 320.867 14.224 320.867 14.86ZM334.337 12.304C334.145 12.16 333.971 12.058 333.815 11.998C333.659 11.926 333.461 11.89 333.221 11.89C332.681 11.89 332.315 12.088 332.123 12.484C331.931 12.868 331.835 13.36 331.835 13.96V19H330.395V10.72H331.835V11.674C332.063 11.326 332.333 11.05 332.645 10.846C332.957 10.642 333.269 10.54 333.581 10.54C333.881 10.54 334.157 10.582 334.409 10.666C334.673 10.738 334.913 10.888 335.129 11.116L334.337 12.304ZM336.997 12.628L336.295 11.566C336.607 11.338 337.033 11.11 337.573 10.882C338.125 10.654 338.785 10.54 339.553 10.54C340.513 10.54 341.293 10.762 341.893 11.206C342.493 11.638 342.793 12.256 342.793 13.06V19H341.353V17.884C341.089 18.316 340.693 18.64 340.165 18.856C339.637 19.072 339.121 19.18 338.617 19.18C338.113 19.18 337.639 19.078 337.195 18.874C336.763 18.658 336.415 18.352 336.151 17.956C335.887 17.56 335.755 17.08 335.755 16.516C335.755 15.712 336.037 15.07 336.601 14.59C337.177 14.098 337.975 13.852 338.995 13.852C339.547 13.852 340.015 13.918 340.399 14.05C340.795 14.17 341.113 14.308 341.353 14.464V13.258C341.353 12.694 341.167 12.31 340.795 12.106C340.435 11.902 339.997 11.8 339.481 11.8C338.857 11.8 338.335 11.902 337.915 12.106C337.495 12.31 337.189 12.484 336.997 12.628ZM337.213 16.444C337.213 16.924 337.375 17.296 337.699 17.56C338.035 17.812 338.467 17.938 338.995 17.938C339.655 17.938 340.213 17.74 340.669 17.344C341.125 16.948 341.353 16.42 341.353 15.76V15.454C341.017 15.286 340.675 15.166 340.327 15.094C339.979 15.022 339.613 14.986 339.229 14.986C338.533 14.986 338.023 15.118 337.699 15.382C337.375 15.634 337.213 15.988 337.213 16.444ZM346.581 22.96H345.141V10.72H346.581V12.142C346.881 11.626 347.271 11.23 347.751 10.954C348.243 10.678 348.795 10.54 349.407 10.54C350.163 10.54 350.847 10.714 351.459 11.062C352.083 11.41 352.581 11.908 352.953 12.556C353.325 13.192 353.511 13.96 353.511 14.86C353.511 15.748 353.325 16.516 352.953 17.164C352.581 17.812 352.083 18.31 351.459 18.658C350.847 19.006 350.163 19.18 349.407 19.18C348.795 19.18 348.243 19.042 347.751 18.766C347.271 18.49 346.881 18.094 346.581 17.578V22.96ZM352.053 14.86C352.053 14.224 351.921 13.684 351.657 13.24C351.405 12.796 351.063 12.46 350.631 12.232C350.211 12.004 349.743 11.89 349.227 11.89C348.807 11.89 348.393 12.004 347.985 12.232C347.577 12.46 347.241 12.796 346.977 13.24C346.713 13.684 346.581 14.224 346.581 14.86C346.581 15.496 346.713 16.036 346.977 16.48C347.241 16.924 347.577 17.26 347.985 17.488C348.393 17.716 348.807 17.83 349.227 17.83C349.743 17.83 350.211 17.716 350.631 17.488C351.063 17.26 351.405 16.924 351.657 16.48C351.921 16.036 352.053 15.496 352.053 14.86ZM360.806 13.96C360.806 12.58 360.218 11.89 359.042 11.89C358.418 11.89 357.908 12.088 357.512 12.484C357.128 12.868 356.936 13.36 356.936 13.96V19H355.496V4.96H356.936V12.034C357.188 11.578 357.524 11.218 357.944 10.954C358.376 10.678 358.862 10.54 359.402 10.54C360.254 10.54 360.938 10.816 361.454 11.368C361.982 11.908 362.246 12.712 362.246 13.78V19H360.806V13.96ZM364.954 7.3C364.954 7.024 365.05 6.79 365.242 6.598C365.446 6.406 365.68 6.31 365.944 6.31C366.22 6.31 366.454 6.406 366.646 6.598C366.838 6.79 366.934 7.024 366.934 7.3C366.934 7.564 366.838 7.798 366.646 8.002C366.454 8.194 366.22 8.29 365.944 8.29C365.68 8.29 365.446 8.194 365.242 8.002C365.05 7.798 364.954 7.564 364.954 7.3ZM365.224 10.72H366.664V19H365.224V10.72ZM368.909 14.86C368.909 13.96 369.095 13.192 369.467 12.556C369.839 11.908 370.337 11.41 370.961 11.062C371.585 10.714 372.269 10.54 373.013 10.54C373.625 10.54 374.171 10.678 374.651 10.954C375.143 11.23 375.539 11.626 375.839 12.142V10.72H377.279V22.96H375.839V17.578C375.539 18.094 375.143 18.49 374.651 18.766C374.171 19.042 373.625 19.18 373.013 19.18C372.269 19.18 371.585 19.006 370.961 18.658C370.337 18.31 369.839 17.812 369.467 17.164C369.095 16.516 368.909 15.748 368.909 14.86ZM370.367 14.86C370.367 15.496 370.493 16.036 370.745 16.48C371.009 16.924 371.357 17.26 371.789 17.488C372.221 17.716 372.689 17.83 373.193 17.83C373.613 17.83 374.027 17.716 374.435 17.488C374.843 17.26 375.179 16.924 375.443 16.48C375.707 16.036 375.839 15.496 375.839 14.86C375.839 14.224 375.707 13.684 375.443 13.24C375.179 12.796 374.843 12.46 374.435 12.232C374.027 12.004 373.613 11.89 373.193 11.89C372.689 11.89 372.221 12.004 371.789 12.232C371.357 12.46 371.009 12.796 370.745 13.24C370.493 13.684 370.367 14.224 370.367 14.86ZM381.335 15.76C381.335 16.42 381.485 16.93 381.785 17.29C382.085 17.65 382.523 17.83 383.099 17.83C383.735 17.83 384.245 17.638 384.629 17.254C385.013 16.87 385.205 16.372 385.205 15.76V10.72H386.645V19H385.205V17.704C384.653 18.688 383.831 19.18 382.739 19.18C381.875 19.18 381.185 18.886 380.669 18.298C380.153 17.71 379.895 16.924 379.895 15.94V10.72H381.335V15.76ZM392.556 19.18C391.788 19.18 391.104 19 390.504 18.64C389.916 18.268 389.454 17.758 389.118 17.11C388.794 16.462 388.632 15.712 388.632 14.86C388.632 13.996 388.8 13.24 389.136 12.592C389.484 11.944 389.964 11.44 390.576 11.08C391.2 10.72 391.92 10.54 392.736 10.54C393.948 10.54 394.902 10.918 395.598 11.674C396.294 12.43 396.642 13.468 396.642 14.788C396.642 14.872 396.636 14.962 396.624 15.058C396.624 15.142 396.624 15.196 396.624 15.22H390.108C390.168 16.048 390.426 16.69 390.882 17.146C391.338 17.602 391.956 17.83 392.736 17.83C393.864 17.83 394.728 17.332 395.328 16.336L396.498 17.074C395.634 18.478 394.32 19.18 392.556 19.18ZM392.736 11.8C392.028 11.8 391.452 11.992 391.008 12.376C390.564 12.748 390.282 13.288 390.162 13.996H395.076C395.028 13.336 394.788 12.808 394.356 12.412C393.936 12.004 393.396 11.8 392.736 11.8ZM407.216 19.18C406.448 19.18 405.764 19 405.164 18.64C404.576 18.268 404.114 17.758 403.778 17.11C403.454 16.462 403.292 15.712 403.292 14.86C403.292 13.996 403.46 13.24 403.796 12.592C404.144 11.944 404.624 11.44 405.236 11.08C405.86 10.72 406.58 10.54 407.396 10.54C408.608 10.54 409.562 10.918 410.258 11.674C410.954 12.43 411.302 13.468 411.302 14.788C411.302 14.872 411.296 14.962 411.284 15.058C411.284 15.142 411.284 15.196 411.284 15.22H404.768C404.828 16.048 405.086 16.69 405.542 17.146C405.998 17.602 406.616 17.83 407.396 17.83C408.524 17.83 409.388 17.332 409.988 16.336L411.158 17.074C410.294 18.478 408.98 19.18 407.216 19.18ZM407.396 11.8C406.688 11.8 406.112 11.992 405.668 12.376C405.224 12.748 404.942 13.288 404.822 13.996H409.736C409.688 13.336 409.448 12.808 409.016 12.412C408.596 12.004 408.056 11.8 407.396 11.8ZM412.016 10.72H413.366V7.84H414.806V10.72H416.156V12.07H414.806V19H413.366V12.07H412.016V10.72ZM421.646 10.72H423.266L425.606 16.57L427.946 10.72H429.566L425.606 19.63L421.646 10.72ZM429.941 14.86C429.941 14.02 430.127 13.276 430.499 12.628C430.883 11.98 431.399 11.47 432.047 11.098C432.695 10.726 433.421 10.54 434.225 10.54C435.041 10.54 435.767 10.726 436.403 11.098C437.051 11.47 437.561 11.98 437.933 12.628C438.317 13.276 438.509 14.02 438.509 14.86C438.509 15.688 438.317 16.432 437.933 17.092C437.561 17.74 437.051 18.25 436.403 18.622C435.767 18.994 435.041 19.18 434.225 19.18C433.421 19.18 432.695 18.994 432.047 18.622C431.399 18.25 430.883 17.74 430.499 17.092C430.127 16.432 429.941 15.688 429.941 14.86ZM431.399 14.86C431.399 15.436 431.519 15.946 431.759 16.39C432.011 16.834 432.347 17.188 432.767 17.452C433.199 17.704 433.685 17.83 434.225 17.83C434.765 17.83 435.245 17.704 435.665 17.452C436.097 17.188 436.433 16.834 436.673 16.39C436.925 15.946 437.051 15.436 437.051 14.86C437.051 14.284 436.925 13.774 436.673 13.33C436.433 12.874 436.097 12.52 435.665 12.268C435.245 12.016 434.765 11.89 434.225 11.89C433.685 11.89 433.199 12.016 432.767 12.268C432.347 12.52 432.011 12.874 431.759 13.33C431.519 13.774 431.399 14.284 431.399 14.86ZM440.487 7.3C440.487 7.024 440.583 6.79 440.775 6.598C440.979 6.406 441.213 6.31 441.477 6.31C441.753 6.31 441.987 6.406 442.179 6.598C442.371 6.79 442.467 7.024 442.467 7.3C442.467 7.564 442.371 7.798 442.179 8.002C441.987 8.194 441.753 8.29 441.477 8.29C441.213 8.29 440.979 8.194 440.775 8.002C440.583 7.798 440.487 7.564 440.487 7.3ZM440.757 10.72H442.197V19H440.757V10.72ZM445.811 14.86C445.811 15.436 445.931 15.946 446.171 16.39C446.423 16.834 446.759 17.188 447.179 17.452C447.611 17.704 448.097 17.83 448.637 17.83C449.309 17.83 449.909 17.68 450.437 17.38C450.965 17.08 451.325 16.726 451.517 16.318V18.118C451.229 18.454 450.815 18.718 450.275 18.91C449.747 19.09 449.201 19.18 448.637 19.18C447.833 19.18 447.107 18.994 446.458 18.622C445.811 18.25 445.295 17.74 444.911 17.092C444.539 16.432 444.353 15.688 444.353 14.86C444.353 14.02 444.539 13.276 444.911 12.628C445.295 11.98 445.811 11.47 446.458 11.098C447.107 10.726 447.833 10.54 448.637 10.54C449.201 10.54 449.747 10.636 450.275 10.828C450.815 11.008 451.229 11.266 451.517 11.602V13.402C451.325 12.994 450.965 12.64 450.437 12.34C449.909 12.04 449.309 11.89 448.637 11.89C448.097 11.89 447.611 12.016 447.179 12.268C446.759 12.52 446.423 12.874 446.171 13.33C445.931 13.774 445.811 14.284 445.811 14.86ZM453.758 7.3C453.758 7.024 453.854 6.79 454.046 6.598C454.25 6.406 454.484 6.31 454.748 6.31C455.024 6.31 455.258 6.406 455.45 6.598C455.642 6.79 455.738 7.024 455.738 7.3C455.738 7.564 455.642 7.798 455.45 8.002C455.258 8.194 455.024 8.29 454.748 8.29C454.484 8.29 454.25 8.194 454.046 8.002C453.854 7.798 453.758 7.564 453.758 7.3ZM454.028 10.72H455.468V19H454.028V10.72ZM475.17 13.78V19H473.73V13.96C473.73 13.252 473.598 12.73 473.334 12.394C473.082 12.058 472.686 11.89 472.146 11.89C471.558 11.89 471.09 12.076 470.742 12.448C470.394 12.808 470.22 13.312 470.22 13.96V19H468.78V13.96C468.78 13.252 468.648 12.73 468.384 12.394C468.132 12.058 467.736 11.89 467.196 11.89C466.608 11.89 466.14 12.076 465.792 12.448C465.444 12.808 465.27 13.312 465.27 13.96V19H463.83V10.72H465.27V11.926C465.762 11.002 466.524 10.54 467.556 10.54C468.132 10.54 468.624 10.678 469.032 10.954C469.452 11.218 469.758 11.596 469.95 12.088C470.526 11.056 471.378 10.54 472.506 10.54C473.358 10.54 474.012 10.822 474.468 11.386C474.936 11.95 475.17 12.748 475.17 13.78ZM477.155 14.86C477.155 14.02 477.341 13.276 477.713 12.628C478.097 11.98 478.613 11.47 479.261 11.098C479.909 10.726 480.635 10.54 481.439 10.54C482.255 10.54 482.981 10.726 483.617 11.098C484.265 11.47 484.775 11.98 485.147 12.628C485.531 13.276 485.723 14.02 485.723 14.86C485.723 15.688 485.531 16.432 485.147 17.092C484.775 17.74 484.265 18.25 483.617 18.622C482.981 18.994 482.255 19.18 481.439 19.18C480.635 19.18 479.909 18.994 479.261 18.622C478.613 18.25 478.097 17.74 477.713 17.092C477.341 16.432 477.155 15.688 477.155 14.86ZM478.613 14.86C478.613 15.436 478.733 15.946 478.973 16.39C479.225 16.834 479.561 17.188 479.981 17.452C480.413 17.704 480.899 17.83 481.439 17.83C481.979 17.83 482.459 17.704 482.879 17.452C483.311 17.188 483.647 16.834 483.887 16.39C484.139 15.946 484.265 15.436 484.265 14.86C484.265 14.284 484.139 13.774 483.887 13.33C483.647 12.874 483.311 12.52 482.879 12.268C482.459 12.016 481.979 11.89 481.439 11.89C480.899 11.89 480.413 12.016 479.981 12.268C479.561 12.52 479.225 12.874 478.973 13.33C478.733 13.774 478.613 14.284 478.613 14.86ZM493.012 13.96C493.012 12.58 492.424 11.89 491.248 11.89C490.624 11.89 490.114 12.082 489.718 12.466C489.334 12.85 489.142 13.348 489.142 13.96V19H487.702V10.72H489.142V12.016C489.682 11.032 490.504 10.54 491.608 10.54C492.484 10.54 493.174 10.834 493.678 11.422C494.194 11.998 494.452 12.784 494.452 13.78V19H493.012V13.96ZM503.905 22.96H502.465V10.72H503.905V12.142C504.205 11.626 504.595 11.23 505.075 10.954C505.567 10.678 506.119 10.54 506.731 10.54C507.487 10.54 508.171 10.714 508.783 11.062C509.407 11.41 509.905 11.908 510.277 12.556C510.649 13.192 510.835 13.96 510.835 14.86C510.835 15.748 510.649 16.516 510.277 17.164C509.905 17.812 509.407 18.31 508.783 18.658C508.171 19.006 507.487 19.18 506.731 19.18C506.119 19.18 505.567 19.042 505.075 18.766C504.595 18.49 504.205 18.094 503.905 17.578V22.96ZM509.377 14.86C509.377 14.224 509.245 13.684 508.981 13.24C508.729 12.796 508.387 12.46 507.955 12.232C507.535 12.004 507.067 11.89 506.551 11.89C506.131 11.89 505.717 12.004 505.309 12.232C504.901 12.46 504.565 12.796 504.301 13.24C504.037 13.684 503.905 14.224 503.905 14.86C503.905 15.496 504.037 16.036 504.301 16.48C504.565 16.924 504.901 17.26 505.309 17.488C505.717 17.716 506.131 17.83 506.551 17.83C507.067 17.83 507.535 17.716 507.955 17.488C508.387 17.26 508.729 16.924 508.981 16.48C509.245 16.036 509.377 15.496 509.377 14.86ZM512.101 14.86C512.101 14.02 512.287 13.276 512.659 12.628C513.043 11.98 513.559 11.47 514.207 11.098C514.855 10.726 515.581 10.54 516.385 10.54C517.201 10.54 517.927 10.726 518.563 11.098C519.211 11.47 519.721 11.98 520.093 12.628C520.477 13.276 520.669 14.02 520.669 14.86C520.669 15.688 520.477 16.432 520.093 17.092C519.721 17.74 519.211 18.25 518.563 18.622C517.927 18.994 517.201 19.18 516.385 19.18C515.581 19.18 514.855 18.994 514.207 18.622C513.559 18.25 513.043 17.74 512.659 17.092C512.287 16.432 512.101 15.688 512.101 14.86ZM513.559 14.86C513.559 15.436 513.679 15.946 513.919 16.39C514.171 16.834 514.507 17.188 514.927 17.452C515.359 17.704 515.845 17.83 516.385 17.83C516.925 17.83 517.405 17.704 517.825 17.452C518.257 17.188 518.593 16.834 518.833 16.39C519.085 15.946 519.211 15.436 519.211 14.86C519.211 14.284 519.085 13.774 518.833 13.33C518.593 12.874 518.257 12.52 517.825 12.268C517.405 12.016 516.925 11.89 516.385 11.89C515.845 11.89 515.359 12.016 514.927 12.268C514.507 12.52 514.171 12.874 513.919 13.33C513.679 13.774 513.559 14.284 513.559 14.86ZM526.589 12.304C526.397 12.16 526.223 12.058 526.067 11.998C525.911 11.926 525.713 11.89 525.473 11.89C524.933 11.89 524.567 12.088 524.375 12.484C524.183 12.868 524.087 13.36 524.087 13.96V19H522.647V10.72H524.087V11.674C524.315 11.326 524.585 11.05 524.897 10.846C525.209 10.642 525.521 10.54 525.833 10.54C526.133 10.54 526.409 10.582 526.661 10.666C526.925 10.738 527.165 10.888 527.381 11.116L526.589 12.304ZM527.557 10.72H528.907V7.84H530.347V10.72H531.697V12.07H530.347V19H528.907V12.07H527.557V10.72ZM532.511 10.72H533.321V7.66C533.321 6.676 533.531 5.95 533.951 5.482C534.371 5.014 534.959 4.78 535.715 4.78C536.099 4.78 536.423 4.858 536.687 5.014C536.963 5.158 537.167 5.32 537.299 5.5L536.507 6.688C536.387 6.484 536.243 6.358 536.075 6.31C535.919 6.25 535.769 6.22 535.625 6.22C535.361 6.22 535.151 6.34 534.995 6.58C534.839 6.82 534.761 7.24 534.761 7.84V10.72H536.651V12.07H534.761V19H533.321V12.07H532.511V10.72ZM537.571 14.86C537.571 14.02 537.757 13.276 538.129 12.628C538.513 11.98 539.029 11.47 539.677 11.098C540.325 10.726 541.051 10.54 541.855 10.54C542.671 10.54 543.397 10.726 544.033 11.098C544.681 11.47 545.191 11.98 545.563 12.628C545.947 13.276 546.139 14.02 546.139 14.86C546.139 15.688 545.947 16.432 545.563 17.092C545.191 17.74 544.681 18.25 544.033 18.622C543.397 18.994 542.671 19.18 541.855 19.18C541.051 19.18 540.325 18.994 539.677 18.622C539.029 18.25 538.513 17.74 538.129 17.092C537.757 16.432 537.571 15.688 537.571 14.86ZM539.029 14.86C539.029 15.436 539.149 15.946 539.389 16.39C539.641 16.834 539.977 17.188 540.397 17.452C540.829 17.704 541.315 17.83 541.855 17.83C542.395 17.83 542.875 17.704 543.295 17.452C543.727 17.188 544.063 16.834 544.303 16.39C544.555 15.946 544.681 15.436 544.681 14.86C544.681 14.284 544.555 13.774 544.303 13.33C544.063 12.874 543.727 12.52 543.295 12.268C542.875 12.016 542.395 11.89 541.855 11.89C541.315 11.89 540.829 12.016 540.397 12.268C539.977 12.52 539.641 12.874 539.389 13.33C539.149 13.774 539.029 14.284 539.029 14.86ZM548.118 4.96H549.558V19H548.118V4.96ZM552.266 7.3C552.266 7.024 552.362 6.79 552.554 6.598C552.758 6.406 552.992 6.31 553.256 6.31C553.532 6.31 553.766 6.406 553.958 6.598C554.15 6.79 554.246 7.024 554.246 7.3C554.246 7.564 554.15 7.798 553.958 8.002C553.766 8.194 553.532 8.29 553.256 8.29C552.992 8.29 552.758 8.194 552.554 8.002C552.362 7.798 552.266 7.564 552.266 7.3ZM552.536 10.72H553.976V19H552.536V10.72ZM556.222 14.86C556.222 14.02 556.408 13.276 556.78 12.628C557.164 11.98 557.68 11.47 558.328 11.098C558.976 10.726 559.702 10.54 560.506 10.54C561.322 10.54 562.048 10.726 562.684 11.098C563.332 11.47 563.842 11.98 564.214 12.628C564.598 13.276 564.79 14.02 564.79 14.86C564.79 15.688 564.598 16.432 564.214 17.092C563.842 17.74 563.332 18.25 562.684 18.622C562.048 18.994 561.322 19.18 560.506 19.18C559.702 19.18 558.976 18.994 558.328 18.622C557.68 18.25 557.164 17.74 556.78 17.092C556.408 16.432 556.222 15.688 556.222 14.86ZM557.68 14.86C557.68 15.436 557.8 15.946 558.04 16.39C558.292 16.834 558.628 17.188 559.048 17.452C559.48 17.704 559.966 17.83 560.506 17.83C561.046 17.83 561.526 17.704 561.946 17.452C562.378 17.188 562.714 16.834 562.954 16.39C563.206 15.946 563.332 15.436 563.332 14.86C563.332 14.284 563.206 13.774 562.954 13.33C562.714 12.874 562.378 12.52 561.946 12.268C561.526 12.016 561.046 11.89 560.506 11.89C559.966 11.89 559.48 12.016 559.048 12.268C558.628 12.52 558.292 12.874 558.04 13.33C557.8 13.774 557.68 14.284 557.68 14.86ZM566.231 18.28C566.231 18.004 566.327 17.77 566.519 17.578C566.723 17.386 566.957 17.29 567.221 17.29C567.497 17.29 567.731 17.386 567.923 17.578C568.115 17.77 568.211 18.004 568.211 18.28C568.211 18.544 568.115 18.778 567.923 18.982C567.731 19.174 567.497 19.27 567.221 19.27C566.957 19.27 566.723 19.174 566.519 18.982C566.327 18.778 566.231 18.544 566.231 18.28Z" fill="black"/>
</svg>
